<?xml version="1.0" encoding="utf-8"?>
<!-- Generator: Adobe Illustrator 24.0.3, SVG Export Plug-In . SVG Version: 6.00 Build 0)  -->
<svg version="1.1" id="Layer_1" xmlns="http://www.w3.org/2000/svg" xmlns:xlink="http://www.w3.org/1999/xlink" x="0px" y="0px"
	 viewBox="0 0 4000 4000" style="enable-background:new 0 0 4000 4000;" xml:space="preserve">
<style type="text/css">
	.st0{fill:#FFD357;}
	.st1{fill:#CB5AFF;}
	.st2{fill:#FFFF55;}
	.st3{fill:#9374E8;}
	.st4{fill:#88E9FF;}
	.st5{fill:#FFBC85;}
	.st6{fill:#FFFF88;}
	.st7{fill:#AC6CFF;}
	.st8{fill:#FF8E39;}
	.st9{fill:#5CA7F2;}
	.st10{fill:#5EEFD3;}
	.st11{fill:#F9DF70;}
	.st12{fill:#A9F25C;}
	.st13{fill:#5BC5F4;}
	.st14{fill:#FF83CD;}
	.st15{fill:#84EA34;}
	.st16{fill:#1DBFA0;}
	.st17{fill:#C43BC1;}
	.st18{fill:#7B9BFF;}
	.st19{fill:#BA6CFF;}
	.st20{fill:#56BA67;}
	.st21{fill:#FC51CC;}
	.st22{fill:#88EDD0;}
	.st23{fill:#A3AF2C;}
	.st24{fill:#F29D36;}
	.st25{fill:#4D34E2;}
	.st26{fill:#88E5C1;}
	.st27{fill:#FC90E2;}
	.st28{fill:#F464A6;}
	.st29{fill:#66E233;}
	.st30{fill:#FFE02C;}
	.st31{fill:#F7856B;}
	.st32{fill:#9D0ECC;}
	.st33{fill:#1FC2E8;}
	.st34{fill:#55F955;}
	.st35{fill:#A8F28F;}
	.st36{fill:#790ECC;}
	.st37{fill:#5B6CD6;}
	.st38{fill:#CE0D8D;}
	.st39{fill:#EACC4B;}
	.st40{fill:#F0FF99;}
	.st41{fill:#36CEB1;}
	.st42{fill:#F96E6E;}
	.st43{fill:#DB2ECF;}
	.st44{fill:#988AFF;}
	.st45{fill:#F7D134;}
	.st46{fill:#94F0F7;}
	.st47{fill:#2BAA79;}
	.st48{fill:#CF1DD8;}
	.st49{fill:#F28F4C;}
	.st50{fill:#8FDDFF;}
	.st51{fill:#70F9A8;}
	.st52{fill:#BB70FC;}
	.st53{fill:#F9F932;}
	.st54{fill:#6ADB12;}
	.st55{fill:#D29BF9;}
	.st56{fill:#F23030;}
	.st57{fill:#26D146;}
	.st58{fill:#81F7EE;}
	.st59{fill:#E529A6;}
	.st60{fill:#912DE0;}
	.st61{fill:#E0E02D;}
	.st62{fill:#E9FF64;}
	.st63{fill:#E82DF7;}
	.st64{fill:#DDBB2F;}
	.st65{fill:#45D8AE;}
	.st66{fill:#D68547;}
	.st67{fill:#ACF42F;}
	.st68{fill:#48B9D3;}
</style>
<image style="overflow:visible;enable-background:new    ;" width="4000" height="4000" xlink:href="9C76B862687C4E9.png" >
</image>
<polygon id="_x36_9_x5F_agadez" class="st0" points="1872.2,918 1880.4,941.8 1876.3,973.4 1885,977.9 1901.2,1003.1 1898.1,1009.5 
	1919.6,1034.4 1907.6,1054.3 1900,1110 1895.9,1208.7 1833,1276.8 1808.9,1307.7 1808.9,1318.6 1802.5,1328.4 1792,1334.8 
	1786.7,1334.8 1773.2,1343.8 1771.3,1351 1783,1358.9 1788.6,1372.4 1781.4,1372.4 1775.8,1381.1 1766.4,1381.1 1751.7,1392.4 
	1744.6,1406.7 1724.6,1406.7 1717.5,1400.6 1691.5,1390.1 1646.9,1390.2 1646.9,1373.2 1673.6,1351.2 1675.8,1334.1 1671.5,1311.3 
	1573.2,1258.8 1528.9,1278.5 1481.9,1278.5 1473.9,1270.5 1462.1,1267.9 1454.1,1243.8 1431.7,1243.8 1416.2,1212.3 1391.6,1200.6 
	1318,1200.4 1318,1095 1398.6,1079.9 1478.5,1011.4 1715.1,869.4 1792.1,886.1 1827.9,912.6 1868.7,895.8 "/>
<polygon id="_x36_8_x5F_hausaland" class="st1" points="1391.6,1200.6 1416.2,1212.3 1431.7,1243.8 1454.1,1243.8 1462.1,1267.9 
	1473.9,1270.5 1481.9,1278.5 1528.9,1278.5 1573.2,1258.8 1671.5,1311.3 1675.8,1334.1 1673.6,1351.2 1646.9,1373.2 1646.9,1390.2 
	1634.1,1396 1621.8,1398.2 1607.9,1405.1 1600.5,1413.1 1582.8,1418.5 1560.4,1418.5 1540.6,1408.3 1523,1394.4 1502.7,1391.2 
	1462.7,1409.4 1455.2,1409.4 1447.2,1391.2 1427.4,1375.7 1411.9,1373.2 1394.3,1364 1377.2,1363.5 1372.4,1369.9 1342.3,1367.4 
	1342.3,1352.1 1344.6,1341.1 1341.3,1333.2 1330.7,1331.2 1314.4,1319.2 1314.4,1303.3 1309.4,1294 1305.8,1278.1 1295.6,1270.5 
	1301.9,1268.3 1308.4,1255.7 1310.1,1208.9 1318,1200.4 "/>
<polygon id="_x36_7_x5F_niger" class="st2" points="1305.8,1278.1 1309.4,1294 1314.4,1303.3 1314.4,1319.2 1330.7,1331.2 
	1341.3,1333.2 1344.6,1341.1 1342.3,1352.1 1342.3,1367.4 1329,1369.5 1313.1,1384.9 1311.2,1409.1 1305.8,1418.3 1291.3,1429 
	1286.6,1440.1 1289.3,1469.5 1284.6,1475.8 1277,1467.1 1269.5,1463.1 1265.9,1455.6 1254.8,1452.4 1246.1,1440.1 1226.6,1444.9 
	1223.8,1452.4 1223.8,1460.6 1207.2,1442.5 1217.2,1438.6 1213.9,1428.7 1204.2,1423.3 1194.7,1431.4 1183.8,1429 1154.9,1405.9 
	1150,1401.1 1153.1,1380.7 1139.5,1370.8 1133,1370.8 1119.4,1355.2 1121.1,1341.6 1110.2,1329.7 1110,1308.7 1129.3,1308.6 
	1140,1311.3 1156.4,1303 1171.8,1290.7 1223.9,1288.2 1279.7,1290.7 1287.3,1276.1 1295.6,1270.5 "/>
<polygon id="_x36_6_x5F_songhai" class="st3" points="1110.2,1329.7 1121.1,1341.6 1119.4,1355.2 1133,1370.8 1139.5,1370.8 
	1153.1,1380.7 1150,1401.1 1154.9,1405.9 1128.5,1413.4 1118.4,1411.2 1110.1,1413.4 1103.1,1422.6 1073.6,1431.4 1065.7,1427.1 
	1055.2,1431.6 1041.1,1421.8 1027.7,1417.5 1024.8,1411.8 1009.8,1403 996.8,1403 992.3,1407.9 973,1414.4 965.3,1409.6 945,1396.7 
	933.6,1393.9 933.6,1371.1 949.3,1374.3 955.2,1362.4 955.2,1352.6 974.8,1341.4 987.4,1346.7 997.5,1346.7 1000.7,1333.7 
	1012.2,1333.7 1026.2,1322.9 1039.5,1320.1 1061.1,1302.5 1075.2,1302.6 1080.8,1307.9 1089.3,1301.4 1099.1,1308.7 1110,1308.7 "/>
<polygon id="_x36_5_x5F_upper-volta" class="st4" points="1073.6,1431.4 1103.1,1422.6 1110.1,1413.4 1118.4,1411.2 1128.5,1413.4 
	1154.9,1405.9 1183.8,1429 1194.7,1431.4 1204.2,1423.3 1213.9,1428.7 1217.2,1438.6 1207.2,1442.5 1223.8,1460.6 1223.8,1467.5 
	1197.8,1488.6 1181,1493 1174.3,1489.4 1145.5,1512.6 1103.7,1508.5 1086.1,1502.9 1065.4,1514.6 1037.1,1509.3 1024.6,1513.4 
	957.9,1512.4 956.7,1488 963.9,1478.7 957.2,1464.3 959.3,1455.9 959.1,1440.3 965.3,1429.3 965.3,1409.6 973,1414.4 992.3,1407.9 
	996.8,1403 1009.8,1403 1024.8,1411.8 1027.7,1417.5 1041.1,1421.8 1055.2,1431.6 1065.7,1427.1 "/>
<polygon id="_x36_4_x5F_houet" class="st5" points="957.9,1512.4 949.7,1532.1 957.9,1541.6 953.8,1548.5 959.6,1563.9 
	958.4,1580.1 962.1,1588.8 953.7,1590.1 936.3,1569 913.1,1566.4 897.8,1568.7 890.2,1574 881.7,1574.5 876.5,1583 854.9,1578 
	849.8,1569.5 845.6,1565.3 839.6,1553.5 831.9,1547.9 820.9,1546.6 817.3,1539.8 821.4,1520.3 817.3,1510.2 830,1501.2 
	834.5,1485.8 828.2,1468.3 846.5,1459.3 863,1459.3 873.5,1444.7 869.9,1423.6 884.4,1418.4 886.5,1412.2 878.8,1401.1 
	891.8,1387.8 901.9,1385.6 917.5,1399.3 925.4,1399.5 926.3,1395.9 933.6,1393.9 945,1396.7 965.3,1409.6 965.3,1429.3 
	959.1,1440.3 959.3,1455.9 957.2,1464.3 963.9,1478.7 956.7,1488 "/>
<polygon id="_x36_3_x5F_gambia" class="st6" points="425.6,1425.6 314.7,1425.6 305.8,1433.8 291.4,1436.8 274,1434.8 261.8,1441.4 
	248,1444.6 239.2,1439.1 239.2,1415.1 241.5,1407.9 236.9,1390.5 251,1382.9 251,1378.3 305.5,1378.3 315,1369.1 338.3,1366.8 
	347.2,1374.7 355,1376.7 366.2,1386.5 380.6,1381.3 391.5,1386.5 403.6,1387.9 412.3,1392.4 412.3,1401.6 420,1405.7 425.6,1417.7 
	"/>
<polygon id="_x36_2_x5F_fulo" class="st7" points="517,1437.3 488,1441 477,1439.2 468,1444.6 461.1,1439.4 432.5,1437.3 
	432.5,1430.8 425.6,1425.6 425.6,1417.7 420,1405.7 412.3,1401.6 412.3,1392.4 403.6,1387.9 391.5,1386.5 380.6,1381.3 
	366.2,1386.5 355,1376.7 347.2,1374.7 338.3,1366.8 352.7,1354.4 343.6,1341.9 350.1,1326.1 341.3,1321.9 342.9,1306.1 356,1295.9 
	361,1284.5 371.1,1276.9 364.2,1261.5 358.9,1256.2 376.4,1231 392.4,1249.2 412.3,1251.3 420,1273.2 435.3,1282.4 441.1,1296.6 
	457.6,1304 462.5,1318 477,1320.1 477.1,1337.4 486.9,1346.7 488.9,1365.5 482,1374.2 494.8,1389.4 501.4,1388 509.8,1403 
	517.4,1408.5 512.9,1421.7 "/>
<polygon id="_x36_1_x5F_senegal" class="st8" points="207.3,1320.1 216.2,1314.7 236.9,1289.7 253.3,1263.5 254.1,1251.3 
	252.6,1239 262.8,1235.7 270.4,1226.7 305.2,1228.1 328.1,1219.8 351,1224.8 363,1221.2 376.4,1231 358.9,1256.2 364.2,1261.5 
	371.1,1276.9 361,1284.5 356,1295.9 342.9,1306.1 341.3,1321.9 350.1,1326.1 343.6,1341.9 352.7,1354.4 338.3,1366.8 315,1369.1 
	305.5,1378.3 251,1378.3 245.3,1372.4 245.1,1364.2 236.9,1353.2 226.6,1332.5 217.8,1321.7 "/>
<polygon id="_x36_0_x5F_sikasso" class="st9" points="873.5,1444.7 863,1459.3 846.5,1459.3 828.2,1468.3 834.5,1485.8 830,1501.2 
	817.3,1510.2 821.4,1520.3 817.3,1539.8 805,1539.8 791.1,1552.5 780.6,1548.7 782.9,1526.7 773.1,1526.7 767.9,1533.8 758.5,1530 
	758.5,1543.9 745,1543.9 740.2,1552.5 724.5,1549.1 718.5,1538.3 708,1538.3 699.8,1552.5 691.1,1554.7 688.9,1546.1 678.8,1541.6 
	674.3,1512.8 657.8,1512.1 661.6,1499.7 669.4,1493 649.6,1482.8 682.2,1452.6 686,1434.9 704.4,1419.6 726.3,1418.2 740.5,1408.9 
	740.5,1395.3 756.1,1384.9 771,1388.6 783.9,1394.2 791.6,1401.9 813.3,1397.4 820.3,1407.5 831.1,1409.3 844.7,1427.1 
	861.9,1419.4 869.9,1423.6 "/>
<polygon id="_x35_9_x5F_kayes" class="st10" points="756.1,1384.9 740.5,1395.3 740.5,1408.9 726.3,1418.2 704.4,1419.6 686,1434.9 
	682.2,1452.6 649.6,1482.8 649.6,1458.8 643,1456.7 643,1448.8 634,1437.3 619.8,1433.8 619.8,1446.3 600.7,1458.8 575,1448.1 
	565.6,1449.8 555.6,1465.8 548.6,1459.5 548.6,1453.3 536.8,1447.7 529.5,1457.4 521.9,1460.9 512.9,1450.8 517,1437.3 
	512.9,1421.7 517.4,1408.5 509.8,1403 501.4,1388 494.8,1389.4 482,1374.2 488.9,1365.5 486.9,1346.7 477.1,1337.4 477,1320.1 
	491.6,1302.6 490,1289.1 502.9,1277.3 514.8,1277.6 527,1288.2 535.3,1302.6 541.7,1298.9 542.9,1290.6 551.4,1282.1 570,1283.6 
	586.3,1288.8 617.1,1283.5 615.3,1272.8 623.6,1270.7 625.7,1280.1 776.6,1280.2 776.6,1291.6 763.8,1308.6 773.5,1320.1 
	773.1,1334.6 759.6,1336.3 749.6,1351.3 745,1366.5 750.6,1371.4 "/>
<polygon id="_x35_8_x5F_mali" class="st11" points="1061.1,1302.5 1039.5,1320.1 1026.2,1322.9 1012.2,1333.7 1000.7,1333.7 
	997.5,1346.7 987.4,1346.7 974.8,1341.4 955.2,1352.6 955.2,1362.4 949.3,1374.3 933.6,1371.1 933.6,1393.9 926.3,1395.9 
	925.4,1399.5 917.5,1399.3 901.9,1385.6 891.8,1387.8 878.8,1401.1 886.5,1412.2 884.4,1418.4 869.9,1423.6 861.9,1419.4 
	844.7,1427.1 831.1,1409.3 820.3,1407.5 813.3,1397.4 791.6,1401.9 783.9,1394.2 771,1388.6 756.1,1384.9 750.6,1371.4 745,1366.5 
	749.6,1351.3 759.6,1336.3 773.1,1334.6 773.5,1320.1 763.8,1308.6 776.6,1291.6 776.6,1280.2 813.4,1280.1 831.4,1275.5 
	847.7,1280.2 864.5,1274.8 901.8,1266 909.7,1269.6 921.5,1266 930.5,1267.9 941.8,1263.4 953.4,1263.4 961,1268.4 964.5,1286.8 
	978.1,1292.9 998.2,1287.3 1020.2,1290.6 1050.1,1301.3 "/>
<polygon id="_x35_7_x5F_gao" class="st12" points="1318,1200.4 1310.1,1208.9 1308.4,1255.7 1301.9,1268.3 1295.6,1270.5 
	1287.3,1276.1 1279.7,1290.7 1223.9,1288.2 1171.8,1290.7 1156.4,1303 1140,1311.3 1129.3,1308.6 1110,1308.7 1099.1,1308.7 
	1089.3,1301.4 1080.8,1307.9 1075.2,1302.6 1061.1,1302.5 1050.1,1301.3 1020.2,1290.6 998.2,1287.3 978.1,1292.9 964.5,1286.8 
	961,1268.4 953.4,1263.4 952.9,1255.6 938.5,1245 942.5,1236.9 942.5,1228.9 978.7,1221.3 997.6,1212.8 1019.6,1205.3 1012.7,1179 
	1055.3,1147.1 1055.3,1083 1133,978.3 1161.7,996.5 1159.4,1014.2 1171,1014.2 1185.8,1021.7 1197.7,1037.7 1216.2,1034.1 
	1226,1049.5 1253.3,1049.5 1267.8,1060.8 1268.3,1078.4 1257.4,1092.8 1271.9,1103.6 1318,1095 "/>
<polygon id="_x35_6_x5F_timbuktu" class="st13" points="1055.3,1083 1055.3,1147.1 1012.7,1179 1019.6,1205.3 997.6,1212.8 
	978.7,1221.3 942.5,1228.9 942.5,1236.9 938.5,1245 952.9,1255.6 953.4,1263.4 941.8,1263.4 930.5,1267.9 921.5,1266 909.7,1269.6 
	901.8,1266 864.5,1274.8 847.7,1280.2 831.4,1275.5 822.2,1277.4 813.4,1280.1 814.8,1270.3 823.5,1258.2 823.5,1244.7 
	813.8,1239.4 811,1226.3 805.1,1219.7 765.6,793.2 841.3,793.1 1133,978.3 "/>
<polygon id="_x35_5_x5F_mauritania" class="st14" points="813.4,1280.1 776.6,1280.1 625.7,1280.1 623.6,1270.7 615.3,1272.8 
	617.1,1283.5 586.3,1288.8 570,1283.6 551.4,1282.1 542.9,1290.6 541.7,1298.9 535.3,1302.6 527,1288.2 514.8,1277.6 502.9,1277.3 
	490,1289.1 491.6,1302.6 477,1320.1 462.5,1318 457.6,1304 441.1,1296.6 435.3,1282.4 420,1273.2 412.3,1251.3 420.3,1241.9 
	433.7,1240.1 448.6,1234.3 452.6,1221.9 463.8,1216.9 482.7,1196.2 468.6,1176.6 468.6,1145.7 458.4,1133 433.7,1114.9 
	431.9,1107.6 432.5,983.7 432.5,903.2 437.3,895.1 453.8,883.9 484.8,873.8 484.8,789.6 490.5,789.6 490.5,740.9 656.7,740.9 
	656.8,676 841.3,793.1 765.6,793.2 805.1,1219.7 811,1226.3 813.8,1239.4 823.5,1244.7 823.5,1258.2 814.8,1270.3 "/>
<polygon id="_x35_4_x5F_arguin" class="st15" points="433.7,1114.9 458.4,1133 468.6,1145.7 468.6,1176.6 482.7,1196.2 
	463.8,1216.9 452.6,1221.9 448.6,1234.3 433.7,1240.1 420.3,1241.9 412.3,1251.3 392.4,1249.2 376.4,1231 363,1221.2 351,1224.8 
	328.1,1219.8 305.2,1228.1 270.4,1226.7 262.8,1235.7 252.6,1239 257.7,1217.6 268.6,1198.7 278.4,1155.2 276.2,1134.8 265,1092.8 
	254.4,1086.2 260.6,1077.2 261,1068.1 267.9,1057.6 263.9,1027.1 257,1013.6 246.8,1018.4 235.9,991.1 235.1,983.7 432.5,983.7 
	431.9,1107.6 "/>
<polygon id="_x35_3_x5F_western-sahara" class="st16" points="656.7,740.9 490.5,740.9 490.5,789.6 484.8,789.6 484.8,873.8 
	453.8,883.9 437.3,895.1 432.5,903.2 432.5,983.7 235.1,983.7 227.9,995.8 227.9,969.2 239.6,939.4 245.6,930.6 253.7,931 
	259,920.6 264.2,903.4 273,895.8 271.1,887 280.4,873.5 281.4,864.1 295.7,849.2 310.4,830 329.5,816.2 338.2,805.2 339.2,778.6 
	358,740.9 358.3,732.3 377.5,718.7 392,713.8 409.9,697.4 417.5,672.6 436.1,643.6 445,640.6 458.3,640.6 476,633 488.4,633 
	500.6,627.8 525.5,655.8 656.7,655.8 656.8,676 "/>
<polygon id="_x35_2_x5F_juba" class="st17" points="3304.7,2068 3276.7,2102.3 3233.2,2158.9 3202.3,2116.1 3202.3,1929.9 
	3222,1910.9 3246.6,1874.9 3257.8,1861.9 3273,1861.9 3289.9,1859.2 3306.5,1870.7 3306.5,1993.9 3334.1,2039 "/>
<polygon id="_x35_1_x5F_mogadishu" class="st18" points="3510.6,1901.2 3480.8,1929.9 3461.1,1952.6 3432.4,1968.2 3409.7,1979 
	3375.8,2000 3334.1,2039 3306.5,1993.9 3306.5,1870.7 3289.9,1859.2 3304.7,1851.2 3309.1,1840.5 3351.1,1820.4 3406.9,1824.4 
	3430.4,1800.3 3441.9,1819.9 3465.6,1819.9 3465.6,1849.9 3474.2,1853.4 3474.2,1870.2 3513.5,1896.2 "/>
<polygon id="_x35_0_x5F_galmudug" class="st19" points="3670.7,1654.1 3655.2,1669.3 3653.2,1689.2 3647,1703.6 3619.4,1738.2 
	3614.3,1761.2 3610.8,1767 3604.1,1786.9 3570.3,1830.8 3559.8,1851.1 3513.5,1896.2 3474.2,1870.2 3474.2,1853.4 3465.6,1849.9 
	3465.6,1819.9 3441.9,1819.9 3430.4,1800.3 3604.3,1619.8 3604.1,1627 3672.4,1649.7 "/>
<polygon id="_x34_9_x5F_punt" class="st20" points="3615.8,1499.1 3632.3,1494.4 3641.4,1489.1 3659.4,1485.8 3666.3,1485.8 
	3689,1477 3693.4,1467.3 3704.4,1460.7 3724.9,1466.5 3729,1477.2 3719.6,1494.4 3720.2,1528.1 3713.6,1548.2 3716.9,1558.5 
	3707.2,1580.4 3709.1,1586.1 3699.2,1598.5 3699.2,1609.3 3684.6,1626.2 3680.7,1638.3 3672.4,1649.7 3604.1,1627 3604.3,1619.8 
	3605.8,1496.4 "/>
<polygon id="_x34_8_x5F_warsangali" class="st21" points="3605.8,1496.4 3604.3,1619.8 3562.4,1664.5 3506.5,1664.5 3349.3,1612.7 
	3321.4,1578.6 3356.9,1529.8 3371.4,1542.7 3407.6,1540.1 3446.8,1519.3 3482.4,1528.9 3506.8,1519.3 3521.3,1509.1 3540.7,1501.4 
	3546,1506.5 3572.7,1504.8 3583.9,1496.4 "/>
<polygon id="_x34_7_x5F_adal" class="st22" points="3356.9,1529.8 3321.4,1578.6 3297.4,1549.8 3276,1511 3267.1,1511 3251.9,1516 
	3242.9,1511 3242.1,1482.4 3260.8,1452.6 3272.8,1440.6 3280.3,1434.6 3290.7,1441.4 3298.2,1431.1 3312.2,1424.1 3323.6,1439.5 
	3324.5,1460.4 3312.2,1467.1 3299.5,1469.7 3283.1,1482.2 3284,1488.8 3294.3,1488 3294.7,1481.7 3316,1481.3 3332.5,1493.7 
	3335.6,1506.6 "/>
<polygon id="_x34_6_x5F_ogaden" class="st23" points="3406.9,1824.4 3351.1,1820.4 3309.1,1840.5 3304.7,1851.2 3289.9,1859.2 
	3273,1861.9 3257.8,1861.9 3246.6,1874.9 3226.1,1869.9 3210,1871.7 3190.6,1856.6 3174,1840.7 3174,1817.8 3170.8,1799.5 
	3186.2,1792.4 3201.3,1780.9 3214,1786.9 3220.7,1766.7 3236.5,1755.6 3236.5,1746.5 3241.3,1740.5 3248.8,1734.6 3257.8,1731.9 
	3264.5,1715.4 3263.6,1694.4 3256.9,1682.4 3272.1,1658.7 3291.3,1653.3 3296.6,1644.9 3349.3,1612.7 3506.5,1664.5 3562.4,1664.5 
	3430.4,1800.3 "/>
<polygon id="_x34_5_x5F_harar" class="st24" points="3276,1511 3297.4,1549.8 3321.4,1578.6 3349.3,1612.7 3296.6,1644.9 
	3291.3,1653.3 3272.1,1658.7 3256.9,1682.4 3263.6,1694.4 3264.5,1715.4 3257.8,1731.9 3248.8,1734.6 3241.3,1740.5 3228.2,1736.2 
	3220.7,1727.4 3205.2,1719.1 3171.6,1691 3174.6,1680 3183.7,1673.3 3165.3,1655.7 3165.3,1641.7 3154.6,1619.8 3157.4,1610.1 
	3156.4,1598 3164.3,1589.1 3162.5,1571.1 3181.6,1560 3177.9,1553 3177.9,1541.4 3172.3,1532.4 3171.6,1517.3 3183.7,1517.8 
	3206.3,1509.1 3225.4,1513.1 3242.9,1511 3251.9,1516 3267.1,1511 "/>
<polygon id="_x34_4_x5F_sidamo" class="st25" points="3049.2,1713.2 3056.7,1719.1 3068.2,1713.2 3085.2,1719.1 3101.9,1719.1 
	3113.8,1713.2 3122.5,1710.8 3130.8,1696.6 3171.6,1691 3205.2,1719.1 3220.7,1727.4 3228.2,1736.2 3241.3,1740.5 3236.5,1746.5 
	3236.5,1755.6 3220.7,1766.7 3214,1786.9 3201.3,1780.9 3186.2,1792.4 3170.8,1799.5 3174,1817.8 3174,1840.7 3190.6,1856.6 
	3147,1873.6 3142.7,1884.3 3128.4,1898.9 3111.8,1897 3075.3,1888.7 3061.1,1891.8 3049.2,1883.9 2991.8,1847.2 2985.8,1847.2 
	2996.3,1829.8 2994.3,1816.3 3005.5,1804.7 3008.2,1791.6 3028.3,1768.8 3031.8,1746.4 3019.8,1734.9 3019.8,1721.7 3025.2,1711.7 
	"/>
<polygon id="_x34_3_x5F_kaffa" class="st26" points="2985.8,1847.2 2958.8,1847.2 2946.7,1838.1 2937.4,1830.5 2940,1804.1 
	2926.6,1798.3 2912.8,1801.6 2909.9,1792.5 2899.8,1784.2 2893.3,1768.3 2891.1,1745.2 2875.6,1732.8 2866.5,1718 2858.9,1718 
	2845.6,1706.1 2843.4,1691.3 2828.2,1680.4 2791.6,1674.2 2799.8,1662.3 2803.2,1644.7 2817.6,1640.6 2835.2,1643.8 2850.2,1635.6 
	2861.5,1638.3 2881.2,1655.7 2893.2,1652.6 2894.7,1643.4 2916,1630.6 2934.9,1640.7 2956.1,1630.6 2976.6,1636 3004.8,1628.7 
	3017.5,1646.8 3029.5,1650.3 3021.7,1663.4 3023.7,1682.4 3013.6,1702.1 3025.2,1711.7 3019.8,1721.7 3019.8,1734.9 3031.8,1746.4 
	3028.3,1768.8 3008.2,1791.6 3005.5,1804.7 2994.3,1816.3 2996.3,1829.8 "/>
<polygon id="_x34_2_x5F_shewa" class="st27" points="3091.6,1546 3121.2,1535.7 3131.1,1515.9 3137.7,1513.1 3142.4,1520.1 
	3171.6,1517.3 3172.3,1532.4 3177.9,1541.4 3177.9,1553 3181.6,1560 3162.5,1571.1 3164.3,1589.1 3156.4,1598 3157.4,1610.1 
	3154.6,1619.8 3165.3,1641.7 3165.3,1655.7 3183.7,1673.3 3174.6,1680 3171.6,1691 3130.8,1696.6 3122.5,1710.8 3113.8,1713.2 
	3101.9,1719.1 3085.2,1719.1 3068.2,1713.2 3056.7,1719.1 3049.2,1713.2 3025.2,1711.7 3013.6,1702.1 3023.7,1682.4 3021.7,1663.4 
	3029.5,1650.3 3017.5,1646.8 3004.8,1628.7 3004.8,1612.9 3016.3,1598.2 3028.7,1595.5 3029.5,1578.9 3034.5,1573.5 3055.2,1562.2 
	3073.7,1541.8 3084.9,1541 "/>
<polygon id="_x34_1_x5F_welega" class="st28" points="2892.8,1530.3 2913.3,1556.1 2954.6,1556.1 2971.9,1535.7 2982.4,1545.3 
	2995.5,1543.2 3006.7,1560 3022.1,1560 3034.5,1573.5 3029.5,1578.9 3028.7,1595.5 3016.3,1598.2 3004.8,1612.9 3004.8,1628.7 
	2976.6,1636 2956.1,1630.6 2934.9,1640.7 2916,1630.6 2894.7,1643.4 2893.2,1652.6 2881.2,1655.7 2861.5,1638.3 2850.2,1635.6 
	2851.5,1616.8 2846.1,1589.6 2853,1563.3 2861.8,1557 2860.6,1545.4 2865.9,1530.1 2883.8,1522.4 2890.4,1522.4 "/>
<polygon id="_x34_0_x5F_gojjam" class="st29" points="3022.2,1478.4 3042.2,1500.1 3062.9,1504.1 3074.1,1511 3076.3,1527.3 
	3070.1,1534.9 3073.7,1541.8 3055.2,1562.2 3034.5,1573.5 3022.1,1560 3006.7,1560 2995.5,1543.2 2982.4,1545.3 2971.9,1535.7 
	2954.6,1556.1 2913.3,1556.1 2892.8,1530.3 2890.4,1522.4 2891.4,1500.4 2901.7,1484 2899.6,1474.8 2909.4,1464.5 2924.2,1433.8 
	2941.1,1424.6 2953.9,1424.1 2952.2,1448.6 2962.4,1456.6 2983.4,1462.8 3001.6,1461.5 3003.7,1474 "/>
<polygon id="_x33_9_x5F_wollo" class="st30" points="3242.9,1511 3225.4,1513.1 3206.3,1509.1 3183.7,1517.8 3171.6,1517.3 
	3142.4,1520.1 3137.7,1513.1 3131.1,1515.9 3121.2,1535.7 3091.6,1546 3084.9,1541 3073.7,1541.8 3070.1,1534.9 3076.3,1527.3 
	3074.1,1511 3096.9,1494.3 3091.2,1483 3091.9,1464.1 3085.3,1450.8 3092.6,1436 3107.8,1433.2 3118.3,1446.2 3133.8,1448.2 
	3156.5,1443 3162.5,1435.8 3171.6,1433.2 3190.4,1410.4 3185.2,1397.6 3200.3,1389.7 3210.3,1378.9 3227.4,1391.2 3248.5,1402 
	3256.8,1421.1 3268.8,1429.1 3272.8,1440.6 3260.8,1452.6 3242.1,1482.4 "/>
<polygon id="_x33_8_x5F_semien" class="st31" points="3033,1366.2 3040.4,1379.8 3053,1387.6 3074.8,1383.3 3087.4,1397.6 
	3095.8,1399.8 3104.9,1411.4 3114.1,1411.4 3118.3,1424.1 3107.8,1433.2 3092.6,1436 3085.3,1450.8 3091.9,1464.1 3091.2,1483 
	3096.9,1494.3 3074.1,1511 3062.9,1504.1 3042.2,1500.1 3022.2,1478.4 3031.6,1462.7 3024.9,1455.3 3018.2,1445.8 3001.7,1452.5 
	3001.6,1461.5 2983.4,1462.8 2962.4,1456.6 2952.2,1448.6 2953.9,1424.1 2956.5,1397.6 2973.5,1351.1 2999.4,1354.5 3006.3,1344.9 
	3017,1342.9 3021.2,1352.1 3030.8,1357.7 "/>
<polygon id="_x33_7_x5F_tigray" class="st32" points="3162.5,1335.9 3177.6,1352.2 3199.9,1354.2 3209.9,1369.8 3210.3,1378.9 
	3200.3,1389.7 3185.2,1397.6 3190.4,1410.4 3171.6,1433.2 3162.5,1435.8 3156.5,1443 3133.8,1448.2 3118.3,1446.2 3107.8,1433.2 
	3118.3,1424.1 3114.1,1411.4 3104.9,1411.4 3095.8,1399.8 3087.4,1397.6 3074.8,1383.3 3053,1387.6 3040.4,1379.8 3033,1366.2 
	3030.8,1357.7 3048.4,1326.3 3058.2,1331 3065.7,1333.6 3070.9,1342.6 3080.6,1342.6 3106.7,1333 3118.4,1339 3129.3,1335.2 
	3146.4,1335.2 "/>
<polygon id="_x33_6_x5F_afar" class="st33" points="3143.4,1300.9 3140.6,1288.9 3146.4,1281 3156.9,1290.9 3154.9,1300.9 
	3163.7,1307.6 3181.2,1307.6 3198.7,1322.8 3213.1,1326.3 3242.1,1362.6 3255.6,1368.6 3272.8,1387.2 3274.8,1400 3282.7,1400 
	3293.5,1415.9 3302.6,1412.3 3310.2,1419.5 3312.2,1424.1 3298.2,1431.1 3290.7,1441.4 3280.3,1434.6 3272.8,1440.6 3268.8,1429.1 
	3256.8,1421.1 3248.5,1402 3227.4,1391.2 3210.3,1378.9 3209.9,1369.8 3199.9,1354.2 3177.6,1352.2 3162.5,1335.9 3146.4,1335.2 
	3139.5,1321.9 3141.3,1311.8 3138.8,1300.2 "/>
<polygon id="_x33_5_x5F_eritrea" class="st34" points="2966.3,1303.1 2975.2,1291.5 2991.2,1237.9 2990.9,1225.3 2997.4,1216.1 
	2997.4,1201.4 3017.2,1198.5 3022,1190.3 3062.3,1170.8 3070.8,1157 3078.1,1155 3086.9,1165.5 3099.7,1191.7 3108.5,1221 
	3113.1,1259.6 3121.8,1269.8 3124.4,1280.1 3129.6,1280.1 3138.8,1300.2 3141.3,1311.8 3139.5,1321.9 3146.4,1335.2 3129.3,1335.2 
	3118.4,1339 3106.7,1333 3080.6,1342.6 3070.9,1342.6 3065.7,1333.6 3058.2,1331 3048.4,1326.3 3030.8,1357.7 3021.2,1352.1 
	3017,1342.9 3006.3,1344.9 2999.4,1354.5 2973.5,1351.1 2971.3,1327.1 "/>
<polygon id="_x33_4_x5F_equatoria" class="st35" points="2828.2,1680.4 2843.4,1691.3 2845.6,1706.1 2858.9,1718 2866.5,1718 
	2875.6,1732.8 2891.1,1745.2 2893.3,1768.3 2899.8,1784.2 2909.9,1792.5 2912.8,1801.6 2926.6,1798.3 2940,1804.1 2937.4,1830.5 
	2946.7,1838.1 2940.9,1841.3 2862.6,1841.3 2845.2,1858.8 2819.9,1883.6 2800.3,1883.6 2791.2,1877.2 2775.8,1883.6 2759.2,1883.6 
	2750.7,1895.2 2739.2,1889.5 2721.9,1888.7 2697.5,1880.6 2683.9,1894 2670.2,1893.2 2663.7,1874.7 2652.1,1873.1 2629.7,1852.5 
	2629.7,1841.8 2618.7,1836.2 2614.2,1818.1 2634.5,1794.6 2636.8,1768.8 2682.9,1769.2 2691.6,1774.2 2715.5,1774.2 2722.8,1769.2 
	2708.3,1745.7 2702.7,1730.9 2715.8,1732.8 2736.8,1727.4 2761.2,1730.9 2773.1,1720.5 2773.8,1711.1 2785.4,1703.9 2783.5,1688.3 
	2791.6,1674.2 "/>
<polygon id="_x33_3_x5F_bar-el-gazal" class="st36" points="2708.3,1745.7 2722.8,1769.2 2715.5,1774.2 2691.6,1774.2 
	2682.9,1769.2 2636.8,1768.8 2634.5,1794.6 2614.2,1818.1 2618.7,1836.2 2602,1852.5 2577.1,1843 2557.6,1857.5 2532.8,1843.9 
	2518.7,1822.6 2511,1822.2 2493.4,1801.6 2498.4,1787.3 2488.9,1775.6 2473.5,1776.5 2473.5,1769.2 2453.1,1760.7 2449.5,1732.8 
	2432.8,1715.4 2389.3,1689.6 2398.8,1683.7 2393,1672 2382.6,1672 2373.1,1655.7 2338.7,1648.9 2344.6,1630.3 2307.9,1626.7 
	2302.9,1606.4 2316.8,1593.4 2326.1,1578.8 2346.1,1572.1 2371.9,1574.3 2378.5,1554.6 2389.6,1544.6 2406,1545 2421.6,1534.8 
	2438,1548.2 2457.5,1552.6 2469.9,1574.3 2478.4,1568.6 2517.6,1571.5 2541.4,1595.3 2557.4,1600.6 2593.4,1602.5 2610.9,1612.4 
	2610.9,1621.5 2621.5,1631.9 2636.2,1648.2 2651.6,1652.6 2661.9,1666 2664.4,1682.3 2681.7,1717.8 2702.7,1730.9 "/>
<polygon id="_x33_2_x5F_upper-nile" class="st37" points="2865.9,1530.1 2860.6,1545.4 2861.8,1557 2853,1563.3 2846.1,1589.6 
	2851.5,1616.8 2850.2,1635.6 2835.2,1643.8 2817.6,1640.6 2803.2,1644.7 2799.8,1662.3 2791.6,1674.2 2783.5,1688.3 2785.4,1703.9 
	2773.8,1711.1 2773.1,1720.5 2761.2,1730.9 2736.8,1727.4 2715.8,1732.8 2702.7,1730.9 2681.7,1717.8 2664.4,1682.3 2661.9,1666 
	2651.6,1652.6 2636.2,1648.2 2621.5,1631.9 2610.9,1621.5 2610.9,1612.4 2593.4,1602.5 2597,1588.8 2612.5,1588.8 2613.1,1565.5 
	2647.8,1565.5 2663.9,1579.8 2694.9,1575.7 2703.3,1568.5 2716.9,1569.1 2727.2,1560.7 2729,1545.8 2742.1,1526.1 2761.2,1507 
	2761.2,1478.9 2747.5,1461.5 2779.4,1461.5 2779.4,1450.8 2805.1,1450.8 2799.3,1475.3 2817.7,1489.6 2832.1,1519.8 2844.9,1519.8 
	"/>
<polygon id="_x33_1_x5F_darfur" class="st38" points="2517.6,1571.5 2478.4,1568.6 2469.9,1574.3 2457.5,1552.6 2438,1548.2 
	2421.6,1534.8 2406,1545 2389.6,1544.6 2378.5,1554.6 2371.9,1574.3 2346.1,1572.1 2326.1,1578.8 2316.8,1593.4 2314.6,1573 
	2291.1,1537.5 2272.9,1515.8 2279.5,1497.1 2256.5,1478.9 2256.5,1454.9 2250.2,1438.1 2252.5,1426.1 2221.4,1426.1 2221.4,1406.1 
	2239.1,1387 2231.6,1372.4 2241.4,1355.5 2258.7,1344.9 2248.9,1329.3 2262.7,1314.3 2278.6,1294.3 2273.3,1275.7 2283.1,1269.4 
	2301.7,1271.2 2331.4,1269.4 2331.4,1227.4 2481.8,1227.4 2490.7,1308.1 2511,1357.1 2515.2,1375.6 2509.8,1384.6 2509.8,1395.3 
	2491.9,1409.7 2491.9,1424 2488.3,1434.7 2488.3,1450.9 2499.1,1467 2499.1,1507 2517.6,1551.8 "/>
<polygon id="_x33_0_x5F_kordofan" class="st39" points="2517.6,1571.5 2517.6,1551.8 2499.1,1507 2499.1,1467 2488.3,1450.9 
	2488.3,1434.7 2491.9,1424 2491.9,1409.7 2509.8,1395.3 2509.8,1384.6 2515.2,1375.6 2511,1357.1 2490.7,1308.1 2481.8,1227.4 
	2722,1227.4 2755.8,1292.8 2739,1306 2731.5,1321.5 2722,1321.5 2716.9,1329.9 2716.9,1350.3 2728.9,1357.7 2733.3,1371.5 
	2743.5,1385.3 2741.7,1397.7 2728,1406.5 2724.4,1423.4 2729.3,1443.3 2747.5,1461.5 2761.2,1478.9 2761.2,1507 2742.1,1526.1 
	2729,1545.8 2727.2,1560.7 2716.9,1569.1 2703.3,1568.5 2694.9,1575.7 2663.9,1579.8 2647.8,1565.5 2613.1,1565.5 2612.5,1588.8 
	2597,1588.8 2593.4,1602.5 2557.4,1600.6 2541.4,1595.3 "/>
<polygon id="_x32_9_x5F_white-nile" class="st40" points="2805.1,1450.8 2779.4,1450.8 2779.4,1461.5 2747.5,1461.5 2729.3,1443.3 
	2724.4,1423.4 2728,1406.5 2741.7,1397.7 2743.5,1385.3 2733.3,1371.5 2728.9,1357.7 2716.9,1350.3 2716.9,1329.9 2722,1321.5 
	2731.5,1321.5 2739,1306 2755.8,1292.8 2773.2,1293.2 2779.3,1286 2788.5,1293.9 2801.1,1293.5 2808.6,1285.3 2819.6,1279.5 
	2824.3,1267.6 2845.8,1267.6 2853,1272.7 2843.6,1293.1 2857.8,1314.8 2840.5,1343.2 2839.2,1353.4 2820.1,1350.3 2814.8,1376.9 
	2820.1,1387.1 2816.6,1396.8 2795.8,1423.8 2805.5,1437.1 "/>
<polygon id="_x32_8_x5F_blue-nile" class="st41" points="2844.9,1519.8 2832.1,1519.8 2817.7,1489.6 2799.3,1475.3 2805.1,1450.8 
	2805.5,1437.1 2795.8,1423.8 2816.6,1396.8 2820.1,1387.1 2814.8,1376.9 2820.1,1350.3 2839.2,1353.4 2840.5,1343.2 2857.8,1314.8 
	2843.6,1293.1 2853,1272.7 2874.9,1276.1 2930.8,1313 2956.4,1311.6 2958.8,1306.5 2966.3,1303.1 2971.3,1327.1 2973.5,1351.1 
	2956.5,1397.6 2953.9,1424.1 2941.1,1424.6 2924.2,1433.8 2909.4,1464.5 2899.6,1474.8 2901.7,1484 2891.4,1500.4 2890.4,1522.4 
	2883.8,1522.4 2865.9,1530.1 "/>
<polygon id="_x32_7_x5F_khartoum" class="st42" points="2722,1227.4 2735.6,1221.9 2759.2,1190.2 2748.6,1161.4 2757.4,1139.6 
	2829.7,1086.5 2849.9,1134.7 2872.5,1141.7 2889.2,1157 2905.6,1176.8 2920.2,1190.1 2948.9,1201.4 2997.4,1201.4 2997.4,1216.1 
	2990.9,1225.3 2991.2,1237.9 2975.2,1291.5 2966.3,1303.1 2958.8,1306.5 2956.4,1311.6 2930.8,1313 2874.9,1276.1 2853,1272.7 
	2845.8,1267.6 2824.3,1267.6 2819.6,1279.5 2808.6,1285.3 2801.1,1293.5 2788.5,1293.9 2779.3,1286 2773.2,1293.2 2755.8,1292.8 "/>
<polygon id="_x32_6_x5F_suakin" class="st43" points="2997.4,1201.4 2948.9,1201.4 2920.2,1190.1 2905.6,1176.8 2889.2,1157 
	2872.5,1141.7 2849.9,1134.7 2829.7,1086.5 2827.9,1028.2 2823.8,1015.7 2816.8,1013.5 2803.5,1003.9 2809.1,985.1 2804.6,976.9 
	2820.2,961.9 2838.7,961.9 2849.6,945.2 2878.4,936.1 2891.6,906.2 2904.7,907.7 2926,893.1 2933,902.9 2947.1,911 2958.1,911.6 
	2968.9,929.4 2975.9,929.7 2992.9,944.1 2992,964.7 3007.8,991.5 3002.5,994.1 3007.8,1020 3009,1047.2 3012.6,1053.9 
	3012.6,1062.4 3007.6,1070.9 3015.2,1090.4 3018.3,1105.9 3027,1114.9 3042.6,1121.7 3053.3,1131.6 3057.5,1141.5 3070,1143.7 
	3078.1,1155 3070.8,1157 3062.3,1170.8 3022,1190.3 3017.2,1198.5 "/>
<polygon id="_x32_5_x5F_nubia" class="st44" points="2331.4,1075.8 2331.4,1049.5 2385.2,1049.5 2385.3,947.7 2668.4,947.7 
	2803.6,947.7 2820.2,961.9 2804.6,976.9 2809.1,985.1 2803.5,1003.9 2816.8,1013.5 2823.8,1015.7 2827.9,1028.2 2829.7,1086.5 
	2757.4,1139.6 2748.6,1161.4 2759.2,1190.2 2735.6,1221.9 2722,1227.4 2481.8,1227.4 2331.4,1227.4 "/>
<polygon id="_x32_4_x5F_sinai" class="st45" points="2771.8,483.9 2780.5,485.7 2803.4,475.1 2826.3,482.5 2838.7,478.8 2856.5,471 
	2883.1,538.8 2890.4,564.4 2881.2,574 2876.2,588.7 2875.7,604.2 2864.7,622.4 2866.1,637.2 2861.1,644.1 2857,652.3 2835.9,640.9 
	2823.1,626.2 2806.6,612 2802.9,600.6 2801.6,588.2 2786.5,573.6 2776.4,558 2771.8,544.3 2771.8,527.8 2760.8,516.3 2757.6,502.2 
	2764,491.6 "/>
<polygon id="_x32_3_x5F_aswan" class="st46" points="2820.2,961.9 2803.6,947.7 2668.4,947.7 2721.8,852.2 2721.8,805.1 
	2796.4,805.5 2811.4,796.8 2832.5,796.2 2876.4,764.8 2894.1,793.4 2907.8,824.8 2928.5,849.5 2919.4,851.6 2926,893.1 
	2904.7,907.7 2891.6,906.2 2878.4,936.1 2849.6,945.2 2838.7,961.9 "/>
<polygon id="_x32_2_x5F_luxor" class="st47" points="2796.4,805.5 2721.8,805.1 2721.8,778.9 2700.3,746 2721.8,736.4 2742,732.7 
	2758.9,719 2777.6,710.8 2798.5,710.8 2838.7,688.9 2843.9,700.8 2843.9,715.5 2876.4,764.8 2832.5,796.2 2811.4,796.8 "/>
<polygon id="_x32_1_x5F_asyut" class="st48" points="2838.7,688.9 2798.5,710.8 2777.6,710.8 2758.9,719 2742,732.7 2721.8,736.4 
	2700.3,746 2652.7,700.8 2635.6,663.6 2682.5,662.9 2708.7,659.3 2746.6,632.4 2746.6,622.4 2768.9,617.3 2786.5,609.6 
	2805.4,634.2 2817.2,637.4 2827.3,654.7 2819.1,656.1 2830.5,677.8 2838.7,681.2 "/>
<polygon id="_x32_0_x5F_faiyum" class="st49" points="2682.5,662.9 2635.6,663.6 2627,591.3 2637.9,580.8 2640.3,571.7 
	2649.5,562.2 2672.2,551.6 2683.6,551.6 2686,561 2700.2,565 2700.2,571.7 2715.7,588.4 2734.2,588.4 2742.3,615.8 2746.6,622.4 
	2746.6,632.4 2708.7,659.3 "/>
<polygon id="_x31_9_x5F_cairo" class="st50" points="2746.6,622.4 2742.3,615.8 2734.2,588.4 2715.7,588.4 2700.2,571.7 2700.2,565 
	2686,561 2683.6,551.6 2682.5,535.5 2699.8,531.7 2712.5,524 2723.9,526.3 2730.4,516.3 2755.1,514.5 2757.3,519.2 2767.4,529.7 
	2767.4,544.9 2759.4,560.3 2769.7,568.5 2777,580.4 2774.8,592.8 2785,599 2786.5,609.6 2768.9,617.3 "/>
<polygon id="_x31_8_x5F_delta_2_" class="st51" points="2755.1,514.5 2730.4,516.3 2723.9,526.3 2712.5,524 2699.8,531.7 
	2682.5,535.5 2677.8,529.6 2682.2,520.5 2681.3,505.2 2677.5,501.4 2678.9,484.9 2667.8,477.2 2663.9,460.8 2674.5,460.8 
	2698.4,453.9 2718.1,463.4 2734.2,460.8 2752.8,468.7 2768.5,480.4 2760,488.3 2752.8,501.2 "/>
<polygon id="_x31_7_x5F_alexandria" class="st52" points="2683.6,551.6 2672.2,551.6 2649.5,562.2 2640.3,571.7 2637.9,566 
	2625.1,561.7 2620.3,543.2 2602.7,531.7 2589.4,519.8 2592.2,496.5 2609.6,488.4 2624.3,477.2 2632.2,479 2642.5,469.9 
	2648.7,469.9 2656.3,460.8 2663.9,460.8 2667.8,477.2 2678.9,484.9 2677.5,501.4 2681.3,505.2 2682.2,520.5 2677.8,529.6 
	2682.5,535.5 "/>
<polygon id="_x31_6_x5F_el-alamein" class="st53" points="2385.3,947.7 2385.8,576.9 2373,547 2368.7,527.4 2386.4,495 
	2377.3,481.6 2377.3,469.3 2389.5,457.7 2398.7,462.9 2421.1,453.9 2447.5,460.1 2476.5,463.1 2503.2,468.9 2507,475.5 2531.3,475 
	2538.4,480.3 2554.6,479.8 2575.6,487 2592.2,496.5 2589.4,519.8 2602.7,531.7 2620.3,543.2 2625.1,561.7 2637.9,566 2640.3,571.7 
	2637.9,580.8 2627,591.3 2635.6,663.6 2652.7,700.8 2700.3,746 2721.8,778.9 2721.8,805.1 2721.8,852.2 2668.4,947.7 "/>
<polygon id="_x31_5_x5F_cyrenaica" class="st54" points="2080,951.8 2080,624.7 2064.1,616.8 2068.7,584.2 2083.3,557.7 2080,545.1 
	2080,523.2 2093.6,523.2 2119.3,507.2 2136.4,479.7 2125.4,460.2 2122.9,438.2 2136.4,420.4 2174.9,396 2192.6,396 2222,386.2 
	2258.1,394.1 2283.7,402.7 2289.2,419.8 2301.4,423.5 2322.9,424.7 2340,435.1 2371.1,434.5 2386.4,442.4 2389.5,457.7 
	2377.3,469.3 2377.3,481.6 2386.4,495 2368.7,527.4 2373,547 2385.8,576.9 2385.2,1049.5 2331.4,1049.5 2331.4,1075.8 "/>
<polygon id="_x31_4_x5F_tripolitania" class="st55" points="1715.1,869.4 1696.2,833.1 1686.9,836.6 1649.1,813.4 1635.6,818.8 
	1616.7,802.2 1614.3,777.1 1581.1,728.8 1610.5,713.8 1610.5,696.4 1599.7,672.4 1608.9,663.4 1610.5,640.4 1606.2,633.4 
	1608.2,592.9 1599.3,550.8 1580.3,530.3 1588,526.2 1611.6,514.5 1630.1,483.2 1622.4,455.4 1629,447.9 1639.8,446.5 1644.5,437.3 
	1696.3,407.9 1691.2,402.6 1696.3,373.5 1724.4,389.2 1757.6,394.5 1778.8,388.5 1815.3,393.9 1846.4,410.6 1877,414.4 
	1887.6,421.7 1892.9,446.9 1916.1,468.1 1937.3,475.5 1973.8,476.8 2019.6,491.4 2048.1,509.3 2080,523.2 2080,545.1 2083.3,557.7 
	2068.7,584.2 2064.1,616.8 2080,624.7 2080,951.8 1924.1,872.8 1868.7,895.8 1827.9,912.6 1792.1,886.1 "/>
<polygon id="_x31_3_x5F_sus" class="st56" points="525.5,655.8 500.6,627.8 521.7,610.5 536.8,599.7 557.9,590.5 575.7,573.8 
	594,546.2 606.5,530 606.5,513.3 597.8,504.6 591.9,502.5 595.7,494.9 609.7,492.2 620,494.9 637.8,495.5 648,492.2 668.6,494.9 
	691.2,492.2 697.7,505.2 710.7,511.1 708,536 721,544.6 728.5,558.6 656.7,602.9 656.7,655.8 "/>
<polygon id="_x31_2_x5F_tafilalt" class="st57" points="721,544.6 708,536 710.7,511.1 697.7,505.2 691.2,492.2 698.3,482 
	715.5,475.5 733.9,464.7 755.5,464.7 762.5,459.3 780.3,456 803,440.4 803,430.6 813.3,421.5 819.2,411.2 830.6,403.1 830.6,386.9 
	849.5,377.2 857.6,377.2 860.3,388 871.6,390.2 877.5,401 895.4,400.4 911.6,424.2 949.9,433.4 955.1,443.7 934.3,450.5 
	914.7,455.1 910.8,467.9 908.6,476.6 919.6,482.7 910.5,501.6 881.9,504.5 867.9,519.8 828.5,543.6 813.2,562.1 793.1,556.6 
	776.2,562.1 750.2,566 728.5,558.6 "/>
<polygon id="_x31_1_x5F_marrakesh" class="st58" points="595.7,494.9 595.7,477.8 597.9,465.2 606.2,447.2 624.6,429.2 624.6,404.3 
	642.2,393.5 657.7,378.7 660.6,370.5 668.2,369.7 675.6,365.3 685.6,374 691.2,390 713,411.5 725,410.7 738.5,418.2 738.5,430.4 
	746.1,442.5 754.9,448.5 762.5,459.3 755.5,464.7 733.9,464.7 715.5,475.5 698.3,482 691.2,492.2 668.6,494.9 648,492.2 
	637.8,495.5 620,494.9 609.7,492.2 "/>
<polygon id="_x31_0_x5F_rabat" class="st59" points="857.6,377.2 849.5,377.2 830.6,386.9 830.6,403.1 819.2,411.2 813.3,421.5 
	803,430.6 803,440.4 780.3,456 762.5,459.3 754.9,448.5 746.1,442.5 738.5,430.4 738.5,418.2 725,410.7 713,411.5 691.2,390 
	685.6,374 675.6,365.3 684.6,359.8 721.9,348.8 748,333.1 757,323.2 782,280.1 791.7,286.7 816.9,293 831.5,309.2 826,323.2 
	838.6,339.2 838.6,349.6 854.8,365.3 "/>
<polygon id="_x39__x5F_fez" class="st60" points="949.9,433.4 911.6,424.2 895.4,400.4 877.5,401 871.6,390.2 860.3,388 
	857.6,377.2 854.8,365.3 838.6,349.6 838.6,339.2 826,323.2 831.5,309.2 842.4,301.3 869.5,297.7 880.6,297.7 898.9,293.8 
	920,301.3 930.8,293.8 932.8,269.9 939.1,269.9 949.9,262.3 954.2,274.2 975,272.6 990.9,275.4 1007.6,288.6 1007.6,296.9 
	1014.4,302.1 1007.6,308.5 1016.8,323.6 1014,347.8 1020.4,356.7 1015.2,371.4 1025.9,381.8 1025.9,392.9 1045.4,406 1035.1,418.8 
	1041.1,426.7 1037.9,433.4 1023.5,426.7 958.2,426.4 "/>
<polygon id="_x38__x5F_tangiers" class="st61" points="932.8,269.9 930.8,293.8 920,301.3 898.9,293.8 880.6,297.7 869.5,297.7 
	842.4,301.3 831.5,309.2 816.9,293 791.7,286.7 782,280.1 797,239.2 819,234 827.7,234 827.7,248 848.8,264.3 861.9,271.6 
	884.2,271.6 899.7,266.7 905.7,269.5 913.7,265.1 "/>
<polygon id="_x37__x5F_saoura" class="st62" points="1171,771.3 1171,1014.2 1159.4,1014.2 1161.7,996.5 1133,978.3 841.3,793.1 
	656.8,676 656.7,655.8 656.7,602.9 728.5,558.6 750.2,566 776.2,562.1 793.1,556.6 813.2,562.1 828.5,543.6 867.9,519.8 
	881.9,504.5 910.5,501.6 919.6,482.7 908.6,476.6 914.7,455.1 934.3,450.5 955.1,443.7 949.9,433.4 958.2,426.4 1023.5,426.7 
	1037.9,433.4 1041.1,426.7 1046.9,422.1 1054.2,428.9 1099.4,417.4 1098.6,397.5 1205.4,370.5 1210.2,376.1 1224.3,433.4 
	1215.4,443 1215.4,451.9 1205.7,465 1209.6,481.6 1209.6,503.7 1195.3,537.7 1201.9,573.2 1201.9,600.6 1186.8,604.8 1157.4,617.6 
	1148.2,641.2 1128.5,645.8 1121.9,659.7 1105.7,675.9 1111.9,689 1111.9,718 1136.4,733.1 1154.4,749.7 1154.4,763.4 "/>
<polygon id="_x36__x5F_touggourt" class="st63" points="1171,1014.2 1171,771.3 1154.4,763.4 1154.4,749.7 1136.4,733.1 1111.9,718 
	1111.9,689 1105.7,675.9 1121.9,659.7 1128.5,645.8 1148.2,641.2 1157.4,617.6 1186.8,604.8 1201.9,600.6 1201.9,573.2 
	1195.3,537.7 1209.6,503.7 1209.6,481.6 1205.7,465 1215.4,451.9 1215.4,443 1224.3,433.4 1210.2,376.1 1217.8,369.3 1215.7,349.2 
	1228.5,343.9 1232.2,329.3 1244.9,328.5 1255.8,324.3 1277.2,349.9 1301.8,333.4 1320.4,327.1 1365,319.4 1373.8,312.7 
	1394.2,313.6 1410,317.3 1427.1,314.4 1449.2,324.5 1476.1,334.1 1485.4,334.1 1486.3,349.2 1493.1,356.1 1502.6,373.5 
	1514.3,376.6 1524.9,388.7 1526.9,409.9 1560.8,428.7 1588,526.2 1580.3,530.3 1599.3,550.8 1608.2,592.9 1606.2,633.4 
	1610.5,640.4 1608.9,663.4 1599.7,672.4 1610.5,696.4 1610.5,713.8 1581.1,728.8 1614.3,777.1 1616.7,802.2 1635.6,818.8 
	1649.1,813.4 1686.9,836.6 1696.2,833.1 1715.1,869.4 1478.5,1011.4 1398.6,1079.9 1271.9,1103.6 1257.4,1092.8 1268.3,1078.4 
	1267.8,1060.8 1253.3,1049.5 1226,1049.5 1216.2,1034.1 1197.7,1037.7 1185.8,1021.7 "/>
<polygon id="_x35__x5F_oran" class="st64" points="1041.1,426.7 1035.1,418.8 1045.4,406 1025.9,392.9 1025.9,381.8 1015.2,371.4 
	1020.4,356.7 1014,347.8 1016.8,323.6 1007.6,308.5 1014.4,302.1 1007.6,296.9 1007.6,288.6 990.9,275.4 1006.1,275.4 1024.4,264.5 
	1035.7,262.3 1039.1,249.3 1058.7,241 1069.6,242.8 1082.4,234 1096.3,238.9 1110.1,232.9 1121.1,217.2 1134.9,211.7 1136.8,221.6 
	1149.6,220.9 1149.6,227.1 1168.7,236.3 1166.8,247.2 1178.6,249.3 1182.8,273.6 1209.4,270.5 1219.3,288.8 1222,307.9 
	1232.2,329.3 1228.5,343.9 1215.7,349.2 1217.8,369.3 1210.2,376.1 1205.4,370.5 1098.6,397.5 1099.4,417.4 1054.2,428.9 
	1046.9,422.1 "/>
<polygon id="_x34__x5F_algiers" class="st65" points="1232.2,329.3 1222,307.9 1219.3,288.8 1209.4,270.5 1182.8,273.6 
	1178.6,249.3 1166.8,247.2 1168.7,236.3 1149.6,227.1 1149.6,220.9 1136.8,221.6 1134.9,211.7 1164.2,201.8 1210.5,199 
	1222.4,196.2 1236.1,200 1254,188.8 1273.7,188.8 1302.5,182.9 1335.8,182.9 1335.8,200 1317.2,226 1322.5,232.7 1334.4,233 
	1334.4,240.8 1352.3,240.1 1358.6,248.1 1346.7,275.5 1358.6,283.2 1345.6,295.5 1326.3,297.6 1312.3,314.8 1320.4,327.1 
	1301.8,333.4 1277.2,349.9 1255.8,324.3 1244.9,328.5 "/>
<polygon id="_x33__x5F_constantine" class="st66" points="1320.4,327.1 1312.3,314.8 1326.3,297.6 1345.6,295.5 1358.6,283.2 
	1346.7,275.5 1358.6,248.1 1352.3,240.1 1334.4,240.8 1334.4,233 1322.5,232.7 1317.2,226 1335.8,200 1335.8,182.9 1352.5,185.2 
	1370.1,197.9 1377.7,197.6 1398.6,186.5 1417.5,184.2 1428.9,173.3 1437.2,173.3 1447.1,181.6 1467.5,182.9 1473.8,173.3 
	1498.3,178.2 1502,186.5 1514.2,186.5 1539,182.9 1532,196.9 1524.3,203.4 1528.9,215.3 1521.4,236.2 1528.4,252.8 1525.6,263.4 
	1534.4,271.7 1523,296.1 1503.5,312.1 1485.4,334.1 1476.1,334.1 1449.2,324.5 1427.1,314.4 1410,317.3 1394.2,313.6 1373.8,312.7 
	1365,319.4 "/>
<polygon id="_x32__x5F_gabes" class="st67" points="1614.2,322.4 1616.7,336.4 1631.2,347.5 1649.3,348.6 1649.3,358.1 
	1655.5,360.3 1662.6,353 1654.8,343.3 1662.6,338.2 1667.8,343.9 1669.4,354.5 1676.4,366.9 1696.3,373.5 1691.2,402.6 
	1696.3,407.9 1662.1,426.9 1644.5,437.3 1639.8,446.5 1629,447.9 1622.4,455.4 1630.1,483.2 1611.6,514.5 1588,526.2 1560.8,428.7 
	1526.9,409.9 1524.9,388.7 1514.3,376.6 1502.6,373.5 1493.1,356.1 1486.3,349.2 1485.4,334.1 1503.5,312.1 1523,296.1 1534.2,298 
	1551.6,294.9 1570.9,302.7 1583.7,313.1 1601.5,322.4 "/>
<polygon id="_x31__x5F_tunis" class="st68" points="1583.7,313.1 1570.9,302.7 1551.6,294.9 1534.2,298 1523,296.1 1534.4,271.7 
	1525.6,263.4 1528.4,252.8 1521.4,236.2 1528.9,215.3 1524.3,203.4 1532,196.9 1539,182.9 1548.1,178.5 1557.8,178.5 1574.4,167.3 
	1604.9,161.1 1604.9,168.8 1611.9,168.8 1618.9,164.9 1625.4,170.7 1625.4,180 1630.9,186.2 1630.9,191.6 1636.7,192 1643.2,185.1 
	1650.6,185.1 1664.5,173.3 1671.9,188.5 1659.9,197.4 1657.9,207.1 1642.9,208.3 1638.2,223.7 1647.1,241.5 1656,241.5 
	1665.7,249.7 1671.9,271.7 1661.4,276.7 1657.9,289.1 1640.9,303 1614.2,322.4 1601.5,322.4 "/>
</svg>
