<?xml version="1.0" encoding="utf-8"?>
<!-- Generator: Adobe Illustrator 24.0.3, SVG Export Plug-In . SVG Version: 6.00 Build 0)  -->
<svg version="1.1" id="Layer_1" xmlns="http://www.w3.org/2000/svg" xmlns:xlink="http://www.w3.org/1999/xlink" x="0px" y="0px"
	 viewBox="0 0 4000 4000" style="enable-background:new 0 0 4000 4000;" xml:space="preserve">
<style type="text/css">
	.st0{fill:#FFD357;}
	.st1{fill:#FF9FA8;}
	.st2{fill:#41B787;}
	.st3{fill:#F270CD;}
	.st4{fill:#70F289;}
	.st5{fill:#F2CD70;}
	.st6{fill:#C4EF70;}
	.st7{fill:#70F2D0;}
	.st8{fill:#6EC1F4;}
	.st9{fill:#D7FF5C;}
	.st10{fill:#FF5C8E;}
	.st11{fill:#5FFFB2;}
	.st12{fill:#CB5AFF;}
	.st13{fill:#FFFF55;}
	.st14{fill:#9374E8;}
	.st15{fill:#88E9FF;}
	.st16{fill:#FFBC85;}
	.st17{fill:#FFFF88;}
	.st18{fill:#AC6CFF;}
	.st19{fill:#FF8E39;}
	.st20{fill:#5CA7F2;}
	.st21{fill:#5EEFD3;}
	.st22{fill:#F9DF70;}
	.st23{fill:#A9F25C;}
	.st24{fill:#5BC5F4;}
	.st25{fill:#FF83CD;}
	.st26{fill:#84EA34;}
	.st27{fill:#1DBFA0;}
	.st28{fill:#C43BC1;}
	.st29{fill:#7B9BFF;}
	.st30{fill:#BA6CFF;}
	.st31{fill:#56BA67;}
	.st32{fill:#FC51CC;}
	.st33{fill:#88EDD0;}
	.st34{fill:#A3AF2C;}
	.st35{fill:#F29D36;}
	.st36{fill:#4D34E2;}
	.st37{fill:#88E5C1;}
	.st38{fill:#FC90E2;}
	.st39{fill:#F464A6;}
	.st40{fill:#66E233;}
	.st41{fill:#FFE02C;}
	.st42{fill:#F7856B;}
	.st43{fill:#9D0ECC;}
	.st44{fill:#1FC2E8;}
	.st45{fill:#55F955;}
	.st46{fill:#A8F28F;}
	.st47{fill:#790ECC;}
	.st48{fill:#5B6CD6;}
	.st49{fill:#CE0D8D;}
	.st50{fill:#EACC4B;}
	.st51{fill:#F0FF99;}
	.st52{fill:#36CEB1;}
	.st53{fill:#F96E6E;}
	.st54{fill:#DB2ECF;}
	.st55{fill:#988AFF;}
	.st56{fill:#F7D134;}
	.st57{fill:#94F0F7;}
	.st58{fill:#2BAA79;}
	.st59{fill:#CF1DD8;}
	.st60{fill:#F28F4C;}
	.st61{fill:#8FDDFF;}
	.st62{fill:#70F9A8;}
	.st63{fill:#BB70FC;}
	.st64{fill:#F9F932;}
	.st65{fill:#6ADB12;}
	.st66{fill:#D29BF9;}
	.st67{fill:#F23030;}
	.st68{fill:#26D146;}
	.st69{fill:#81F7EE;}
	.st70{fill:#E529A6;}
	.st71{fill:#912DE0;}
	.st72{fill:#E0E02D;}
	.st73{fill:#E9FF64;}
	.st74{fill:#E82DF7;}
	.st75{fill:#DDBB2F;}
	.st76{fill:#45D8AE;}
	.st77{fill:#D68547;}
	.st78{fill:#ACF42F;}
	.st79{fill:#48B9D3;}
</style>
<image style="overflow:visible;enable-background:new    ;" width="4000" height="4000" xlink:href="9C76B862687C4E9.png" >
</image>
<polygon id="_x31_17_x5F_luanda" class="st0" points="2000,2515.1 2004.2,2522.2 2002.1,2538.8 2004.2,2547.6 1988.8,2557.8 
	1992.5,2569.1 1988.8,2579.8 1978.1,2575.2 1958.8,2572.5 1935.6,2580.8 1931,2580.8 1922.7,2574.2 1904.9,2573.9 1894.9,2578.3 
	1873.4,2577.1 1865.4,2573.9 1849.3,2578.8 1831,2577.6 1820,2570.8 1803.4,2553.7 1790.5,2549.8 1772.4,2552 1768.7,2545.1 
	1781.9,2525.9 1788.8,2524.2 1788.3,2518.6 1786.1,2512.5 1789.2,2503.9 1780.9,2491 1772.2,2475.6 1759.2,2445.8 1759.2,2432.4 
	1740.9,2414.4 1736.1,2399 1729.7,2389.7 1740.7,2386.8 1750.7,2386.8 1765.1,2379.2 1771.8,2378.1 1777.1,2379.9 1783.2,2379.9 
	1794.7,2376.2 1827.2,2376.2 1841.2,2379.9 1857.6,2376.2 1933.8,2376.5 1949,2378.9 1951,2389.8 1956.6,2395.4 1959,2413.1 
	1965.1,2420.7 1971.9,2434 1969.9,2445.2 1984.8,2463.7 1984.8,2469.7 1991.6,2476.6 2000,2490.6 1997.8,2498.3 "/>
<polygon id="_x31_16_x5F_katanga" class="st0" points="2602.2,2357.1 2603.9,2375.5 2596.8,2381.4 2596.8,2388.5 2608.9,2407.4 
	2611.9,2419.5 2618.2,2424.2 2625.7,2435.9 2636.6,2440.5 2646.7,2454.8 2649.5,2475.3 2668.5,2489.6 2666.4,2499.2 2586.7,2510.1 
	2585.4,2513.8 2579.4,2513.8 2555,2544 2552.5,2555.8 2555.8,2565.2 2562.9,2565.2 2565.7,2559.4 2566.4,2568.9 2574.9,2579 
	2564.3,2602.6 2570.3,2616.9 2562.2,2632.4 2565.1,2644 2554.2,2668 2554.4,2679.6 2560.4,2686.2 2560.2,2690.9 2543.6,2694.7 
	2537.6,2702.3 2525.4,2703.8 2518.8,2705.6 2512.8,2699.8 2507.4,2686.4 2495.2,2681.4 2495.2,2674.2 2487.1,2669.8 2482.8,2671.9 
	2484.6,2683.5 2465.6,2693.4 2454,2687 2444.1,2691.4 2430.9,2687.6 2429.8,2681.6 2416.4,2681.2 2404.8,2671.1 2399,2669.8 
	2399,2652.9 2387.4,2657.2 2370,2658.3 2361.1,2667.1 2350.8,2663.2 2347.3,2655.6 2352.6,2649.3 2338.4,2638.6 2330.5,2639.2 
	2316,2641.7 2298.7,2640.2 2289.3,2646 2270.9,2646 2253.8,2640 2245.9,2652.2 2240.3,2646.5 2239.1,2634.5 2245.9,2624.3 
	2243,2611.9 2243,2598.9 2239.1,2594.3 2239.1,2587.1 2231,2582.1 2224.4,2571.2 2216.3,2563.3 2216.3,2557.3 2222.9,2544 
	2225.8,2512.2 2225.2,2504.1 2217.1,2491.9 2219.2,2472.3 2224.6,2465.4 2227.2,2471.1 2237.3,2475 2249.5,2472.9 2269.7,2481.9 
	2285.2,2479 2306.8,2481.9 2325.5,2478.6 2325.5,2456.3 2332,2446.6 2334.2,2433.6 2345.7,2422.1 2359.4,2427.8 2388.9,2417.4 
	2393.3,2408.4 2405.9,2400.8 2415.2,2396.9 2419.4,2392.2 2442.1,2393.6 2442.1,2372.7 2435.1,2366.2 2436.9,2350.8 2449.1,2333 
	2482,2333 2593.6,2333 2594.5,2341.7 "/>
<polygon id="_x31_15_x5F_kivu" class="st0" points="2626.1,2028 2616.5,2034.6 2608.5,2034.6 2594,2043.5 2587.7,2043.5 
	2579.1,2047.5 2566.5,2047.5 2558.2,2040.2 2549.2,2037.7 2529.4,2043.9 2518.4,2049.8 2490.6,2055.1 2479.7,2063.4 2476.1,2072.7 
	2480,2080.6 2465.5,2092.6 2447.6,2101.2 2449.2,2114.1 2440.3,2121.4 2441.9,2135.6 2432,2151.2 2426,2151.2 2422.4,2173 
	2419.4,2200.5 2429.4,2222.1 2429.7,2236.6 2425.4,2249.5 2436.6,2263.5 2434.3,2286.6 2442.3,2292.3 2444.3,2299.1 2456.2,2302.5 
	2459.2,2307.8 2478,2318.4 2482,2333 2593.6,2333 2591,2321.7 2594.9,2291.9 2592,2279.3 2595.6,2267.4 2597.7,2247.3 
	2597.7,2235.5 2586.6,2217.1 2581,2210.7 2581,2202.1 2586.8,2196.2 2584,2188.9 2581,2183.6 2584.4,2171 2591.3,2160.1 
	2598.3,2162.2 2612.9,2148.2 2615.5,2141.9 2612.9,2132.9 2620.8,2111.5 2620.6,2100 2608.2,2111.1 2603.6,2104.1 2607.9,2097.9 
	2612.9,2084.6 2622.4,2078.9 2622.4,2072.3 2634.3,2062.9 2636.6,2055.7 2636.4,2031.8 "/>
<polygon id="_x31_14_x5F_kasai" class="st0" points="2449.1,2333 2436.9,2350.8 2435.1,2366.2 2442.1,2372.7 2442.1,2393.6 
	2419.4,2392.2 2415.2,2396.9 2405.9,2400.8 2393.3,2408.4 2388.9,2417.4 2374.5,2422.4 2359.4,2427.8 2345.7,2422.1 2334.2,2433.6 
	2332,2446.6 2325.5,2456.3 2325.5,2478.6 2306.8,2481.9 2285.2,2479 2269.7,2481.9 2249.5,2472.9 2237.3,2475 2227.2,2471.1 
	2224.6,2465.4 2219.3,2462.4 2219.3,2452.3 2213.9,2449.5 2156.6,2449.5 2160.2,2434 2121.4,2434 2125,2425.5 2123.4,2420.3 
	2113.3,2413.1 2113.3,2390.2 2125.8,2380.9 2133.8,2369.3 2136.2,2338.8 2127.8,2319.5 2130.2,2307 2127.8,2293.7 2138.7,2297.8 
	2147.1,2297.8 2159.9,2287.3 2156.3,2261.2 2156.3,2247.9 2175.6,2204.8 2190.5,2204.8 2198.5,2198.4 2208.3,2198.9 2222.3,2204.8 
	2240.5,2194.2 2236.7,2186.6 2238.8,2173.2 2254.9,2173.2 2262.5,2166.2 2279.5,2170.5 2291.8,2180.2 2314.7,2180.2 2321.9,2166.2 
	2327.5,2165 2351.2,2167.3 2352.2,2175.5 2381.9,2175.5 2386.5,2183 2399.9,2183 2407.8,2172.6 2422.4,2173 2419.4,2200.5 
	2429.4,2222.1 2429.7,2236.6 2425.4,2249.5 2436.6,2263.5 2434.3,2286.6 2442.3,2292.3 2444.3,2299.1 2456.2,2302.5 2459.2,2307.8 
	2478,2318.4 2482,2333 "/>
<polygon id="_x31_13_x5F_wele" class="st0" points="2407.8,2172.6 2399.9,2183 2386.5,2183 2381.9,2175.5 2352.2,2175.5 
	2351.2,2167.3 2327.5,2165 2327.5,2151.9 2312.9,2138.6 2313.7,2128.7 2304.7,2123.8 2297.8,2116 2297.8,2088 2291.6,2082.6 
	2289.3,2076.1 2277.7,2058.8 2277.7,2049.2 2271.3,2040.4 2269.1,2022.8 2263.7,2008.8 2250.6,1997 2246.3,1995.9 2253.7,1986.1 
	2255.7,1972.2 2274.2,1971.1 2286.7,1957.2 2288.5,1951.7 2297.3,1947.2 2292.8,1943.3 2281.1,1941.4 2279.3,1934.7 2282.8,1922 
	2279.5,1912.3 2267.8,1900.4 2278.3,1890.2 2274.8,1877.7 2262.7,1875.8 2257,1871.9 2251.9,1863.1 2256.4,1847.6 2276.5,1829.8 
	2285.6,1827.5 2299.3,1838.9 2318,1830.7 2347.2,1823.9 2356.3,1813.4 2372.2,1826.6 2397.8,1817.5 2397.8,1808.8 2408.7,1800.1 
	2424.2,1808.3 2441.6,1808.3 2477.6,1817.5 2495.4,1804 2511,1822.2 2518.7,1822.6 2532.8,1843.9 2557.6,1857.5 2577.1,1843 
	2602,1852.5 2618.7,1836.2 2629.7,1841.8 2629.7,1852.5 2652.1,1873.1 2663.7,1874.7 2670.2,1893.2 2683.9,1894 2688.7,1897.5 
	2679.5,1909.4 2682.1,1917.1 2674.2,1936.3 2674.2,1947.5 2680.7,1953.2 2686.6,1951 2702.4,1964.3 2690.8,1975.8 2682.4,1978.6 
	2659.5,2008.2 2663.1,2015.7 2655,2015.7 2650.9,2023.4 2642.7,2031.8 2636.4,2031.8 2626.1,2028 2616.5,2034.6 2608.5,2034.6 
	2594,2043.5 2587.7,2043.5 2579.1,2047.5 2566.5,2047.5 2558.2,2040.2 2549.2,2037.7 2529.4,2043.9 2518.4,2049.8 2490.6,2055.1 
	2479.7,2063.4 2476.1,2072.7 2480,2080.6 2465.5,2092.6 2447.6,2101.2 2449.2,2114.1 2440.3,2121.4 2441.9,2135.6 2432,2151.2 
	2426,2151.2 2422.4,2173 "/>
<polygon id="_x31_12_x5F_equateur" class="st0" points="2321.9,2166.2 2314.7,2180.2 2291.8,2180.2 2279.5,2170.5 2262.5,2166.2 
	2254.9,2173.2 2238.8,2173.2 2236.7,2186.6 2240.5,2194.2 2222.3,2204.8 2208.3,2198.9 2198.5,2198.4 2190.5,2204.8 2175.6,2204.8 
	2160.4,2181.1 2139.2,2183 2121,2176 2111.6,2158.2 2100.6,2158.2 2080.3,2125.1 2076.9,2112.8 2062.9,2109.4 2043.4,2114.1 
	2031.1,2122.6 2026.9,2114.5 2013.7,2100.5 2006.4,2104.1 2012.8,2071.5 2020.2,2052.7 2016.3,2040.3 2016.3,2021.5 2025.5,2006.6 
	2030.9,1988.9 2029.1,1975.4 2029.1,1961.8 2038.3,1945 2046.5,1924.1 2055.7,1909.9 2053.9,1894.9 2058.3,1873.7 2052.2,1853.9 
	2063.1,1849.4 2078.5,1823.4 2083.5,1823.4 2094.4,1811 2112.2,1810.7 2123.4,1821.6 2143.9,1831.6 2149.2,1843 2156.9,1851.3 
	2179.7,1848.3 2200.4,1859 2214,1853 2239.1,1863.1 2251.9,1863.1 2257,1871.9 2262.7,1875.8 2274.8,1877.7 2278.3,1890.2 
	2267.8,1900.4 2279.5,1912.3 2282.8,1922 2279.3,1934.7 2281.1,1941.4 2292.8,1943.3 2297.3,1947.2 2288.5,1951.7 2286.7,1957.2 
	2274.2,1971.1 2255.7,1972.2 2253.7,1986.1 2246.3,1995.9 2250.6,1997 2263.7,2008.8 2269.1,2022.8 2271.3,2040.4 2277.7,2049.2 
	2277.7,2058.8 2289.3,2076.1 2291.6,2082.6 2297.8,2088 2297.8,2116 2304.7,2123.8 2313.7,2128.7 2312.9,2138.6 2327.5,2151.9 
	2327.5,2165 "/>
<polygon id="_x31_11_x5F_bandundu" class="st0" points="2156.3,2247.9 2156.3,2261.2 2159.9,2287.3 2147.1,2297.8 2138.7,2297.8 
	2127.8,2293.7 2130.2,2307 2127.8,2319.5 2136.2,2338.8 2133.8,2369.3 2125.8,2380.9 2113.3,2390.2 2113.3,2413.1 2123.4,2420.3 
	2125,2425.5 2121.4,2434 2102.9,2434 2099.3,2446.8 2103.3,2455.3 2093.2,2464.5 2097.3,2471.3 2091.2,2485 2061.1,2485 
	2050.7,2481.8 2044.2,2487.4 2028.6,2487.4 2008.5,2492.2 2000,2490.6 1991.6,2476.6 1984.8,2469.7 1984.8,2463.7 1969.9,2445.2 
	1971.9,2434 1965.1,2420.7 1959,2413.1 1956.6,2395.4 1951,2389.8 1949,2378.9 1933.8,2376.5 1933.8,2361.7 1930.1,2347.2 
	1933.8,2323.5 1943.8,2309.4 1945.8,2290.5 1933.8,2281.3 1916.4,2275.6 1923.6,2265.6 1933.8,2244.3 1931.9,2225.4 1935.5,2209.4 
	1930.2,2193.4 1936.9,2180.3 1951.1,2164 1960.7,2141.7 1971.7,2134.9 1995.1,2118.3 2006.4,2104.1 2013.7,2100.5 2026.9,2114.5 
	2031.1,2122.6 2043.4,2114.1 2062.9,2109.4 2076.9,2112.8 2080.3,2125.1 2100.6,2158.2 2111.6,2158.2 2121,2176 2139.2,2183 
	2160.4,2181.1 2175.6,2204.8 "/>
<polygon id="_x31_10_x5F_south-congo" class="st0" points="1857.6,2376.2 1841.2,2379.9 1827.2,2376.2 1794.7,2376.2 1783.2,2379.9 
	1777.1,2379.9 1771.8,2378.1 1765.1,2379.2 1750.7,2386.8 1740.7,2386.8 1728.7,2375.5 1723.6,2366.9 1729.6,2359.2 1723.6,2344.4 
	1717.4,2333.1 1729.6,2318.5 1738.6,2314.4 1756.2,2299.1 1762.5,2302 1785.7,2326.4 1800.5,2320.9 1806,2304.1 1819.7,2304.1 
	1835.3,2296.2 1843.9,2304.4 1850.6,2301.5 1861.6,2307.7 1872.1,2307.7 1880,2298.4 1888.9,2293.8 1896.3,2282.8 1907.6,2281.6 
	1916.4,2275.6 1933.8,2281.3 1945.8,2290.5 1943.8,2309.4 1933.8,2323.5 1930.1,2347.2 1933.8,2361.7 1933.8,2376.5 "/>
<polygon id="_x31_09_x5F_north-congo" class="st0" points="1833.6,2203.4 1843.9,2214.7 1853,2219.1 1863.4,2217.3 1870.3,2222.6 
	1876.9,2231.1 1888.2,2233.6 1905.2,2221 1915.9,2220.4 1922.5,2225.4 1931.9,2225.4 1933.8,2244.3 1923.6,2265.6 1916.4,2275.6 
	1907.6,2281.6 1896.3,2282.8 1888.9,2293.8 1880,2298.4 1872.1,2307.7 1861.6,2307.7 1850.6,2301.5 1843.9,2304.4 1835.3,2296.2 
	1819.7,2304.1 1806,2304.1 1800.5,2320.9 1785.7,2326.4 1762.5,2302 1756.2,2299.1 1738.6,2314.4 1729.6,2318.5 1717.4,2333.1 
	1707.1,2323.1 1703.3,2307.7 1689.6,2295.5 1671.9,2277 1682.1,2257.2 1693.3,2257.2 1708.9,2240.6 1713.8,2228.4 1719.4,2225.4 
	1720.4,2197.7 1738.6,2197.7 1738.6,2172.6 1747,2170.5 1757.7,2173.2 1770.8,2195.1 1787.6,2200.1 1798.1,2197.6 1818.8,2203.4 
	1826.3,2203.4 1827.9,2197 1832.4,2197.8 "/>
<polygon id="_x31_08_x5F_upper-congo" class="st0" points="2055.7,1909.9 2046.5,1924.1 2038.3,1945 2029.1,1961.8 2029.1,1975.4 
	2030.9,1988.9 2025.5,2006.6 2016.3,2021.5 2016.3,2040.3 2020.2,2052.7 2012.8,2071.5 2006.4,2104.1 1995.1,2118.3 1971.7,2134.9 
	1960.7,2141.7 1951.1,2164 1936.9,2180.3 1930.2,2193.4 1935.5,2209.4 1931.9,2225.4 1922.5,2225.4 1915.9,2220.4 1905.2,2221 
	1888.2,2233.6 1876.9,2231.1 1870.3,2222.6 1863.4,2217.3 1853,2219.1 1843.9,2214.7 1833.6,2203.4 1832.4,2197.8 1827.9,2197 
	1827.3,2183.1 1838.7,2169.7 1843.9,2149.5 1836.4,2128.7 1841.8,2111.9 1837.1,2102 1831,2099.7 1825.9,2088.9 1814.5,2085 
	1816.6,2054.1 1831,2050.2 1841.8,2037.8 1833.3,2007.7 1821.1,2002.4 1808.7,2003.4 1787.2,2011.5 1777.6,2007.7 1773.5,1992.7 
	1775.7,1976.8 1782,1964.1 1846,1962.2 1866.1,1969.4 1903,1978.2 1917.8,1986.1 1931.5,1986.1 1923.6,1967.5 1931.5,1961.8 
	1949.2,1931.9 1944.8,1927.4 1952.3,1895.9 1973.5,1893.9 1997.1,1885 2015.2,1894.6 2033,1897.7 2042.2,1890.1 2053.9,1894.9 "/>
<polygon id="_x31_07_x5F_ogowe" class="st0" points="1775.7,1976.8 1773.5,1992.7 1777.6,2007.7 1787.2,2011.5 1808.7,2003.4 
	1821.1,2002.4 1833.3,2007.7 1841.8,2037.8 1831,2050.2 1816.6,2054.1 1814.5,2085 1825.9,2088.9 1831,2099.7 1837.1,2102 
	1841.8,2111.9 1836.4,2128.7 1843.9,2149.5 1838.7,2169.7 1827.3,2183.1 1827.9,2197 1826.3,2203.4 1818.8,2203.4 1798.1,2197.6 
	1787.6,2200.1 1770.8,2195.1 1757.7,2173.2 1747,2170.5 1738.6,2172.6 1731.3,2172.6 1720.1,2164.7 1721.7,2149.5 1713.1,2145.8 
	1705.9,2133.9 1695.3,2132 1690.4,2126.4 1695.3,2113.8 1687.5,2104.2 1683.7,2091 1693,2063.9 1682.1,2034.9 1680.3,2025.7 
	1680.3,1964.1 1692.3,1957.2 1758.1,1962.2 1777.5,1957.6 1782,1964.1 "/>
<polygon id="_x31_06_x5F_gabon" class="st0" points="1682.1,2034.9 1693,2063.9 1683.7,2091 1687.5,2104.2 1695.3,2113.8 
	1690.4,2126.4 1695.3,2132 1705.9,2133.9 1713.1,2145.8 1721.7,2149.5 1720.1,2164.7 1731.3,2172.6 1738.6,2172.6 1738.6,2197.7 
	1720.4,2197.7 1719.4,2225.4 1713.8,2228.4 1708.9,2240.6 1693.3,2257.2 1682.1,2257.2 1671.9,2277 1665.6,2274.3 1659.6,2262.8 
	1650.1,2257.2 1645.1,2246.6 1627.3,2228.7 1592.9,2199.7 1591.3,2188.1 1576.7,2176.2 1573.1,2158.7 1552.9,2127.7 1549.3,2113.5 
	1556.6,2113.5 1564.5,2108.5 1570.5,2108.5 1578.4,2093.3 1577.4,2061.3 1587.3,2067.2 1596.9,2066.2 1582,2051.7 1578,2044.4 
	1587.3,2043.1 1593.9,2048.7 1591.4,2022.1 1603,2024 1608.3,2028.2 1612.5,2025.7 1680.3,2025.7 "/>
<polygon id="_x31_05_x5F_equitorial-guinea" class="st0" points="1680.3,1964.1 1680.3,2025.7 1612.5,2025.7 1608.3,2028.2 
	1603,2024 1591.4,2022.1 1591.4,2019.3 1580.3,2019 1586.8,2004.5 1601.6,1979.3 1599.9,1967.5 1602.9,1957.2 1612,1964.1 "/>
<polygon id="_x31_04_x5F_kotto" class="st0" points="2477.6,1817.5 2441.6,1808.3 2424.2,1808.3 2408.7,1800.1 2397.8,1808.8 
	2397.8,1817.5 2372.2,1826.6 2356.3,1813.4 2347.2,1823.9 2318,1830.7 2299.3,1838.9 2285.6,1827.5 2276.5,1829.8 2256.4,1847.6 
	2251.9,1863.1 2239.1,1863.1 2214,1853 2200.4,1859 2179.7,1848.3 2156.9,1851.3 2149.2,1843 2143.9,1831.6 2123.4,1821.6 
	2112.2,1810.7 2094.4,1811 2083.5,1823.4 2078.5,1823.4 2073.4,1791 2053.9,1776.3 2067.2,1757.1 2067.2,1735.2 2060.7,1717.4 
	2067.2,1698.3 2062.1,1676.7 2054.4,1664 2057.5,1653.5 2066.4,1651.6 2083.1,1631 2068.6,1622.9 2078.4,1613.5 2102.1,1613.5 
	2117.2,1607.9 2145.6,1606.4 2157.4,1596.3 2167.8,1591.9 2178.7,1574.4 2189.4,1568.8 2203,1554 2214.3,1549.9 2217.5,1521.5 
	2228.2,1516.4 2242.7,1516.4 2262.5,1509.9 2272.9,1515.8 2291.1,1537.5 2314.6,1573 2314.6,1593.4 2309.9,1602.3 2302.9,1608.1 
	2309.2,1616.9 2307.1,1627.7 2318.8,1629.8 2343.7,1629.8 2339.7,1639.1 2340.9,1649.6 2375.1,1656.5 2382.8,1671.4 2393.8,1673.1 
	2397.5,1683.3 2390,1689.4 2401.7,1698 2433.6,1715.2 2436.9,1724.1 2451.8,1733.6 2452,1739.9 2449,1745 2455,1753.7 
	2454.3,1761.1 2473.4,1767.9 2477.2,1774.9 2487.6,1776.2 2498.3,1786.1 2495.4,1804 "/>
<polygon id="_x31_03_x5F_bangui" class="st0" points="2062.1,1676.7 2067.2,1698.3 2060.7,1717.4 2067.2,1735.2 2067.2,1757.1 
	2053.9,1776.3 2073.4,1791 2078.5,1823.4 2063.1,1849.4 2052.2,1853.9 2058.3,1873.7 2053.9,1894.9 2042.2,1890.1 2033,1897.7 
	2015.2,1894.6 1997.1,1885 1973.5,1893.9 1952.3,1895.9 1944.8,1927.4 1949.2,1931.9 1931.5,1961.8 1923.9,1948.5 1923.9,1923.8 
	1916.3,1916.9 1907.6,1913.1 1892.7,1894.5 1874.1,1875.9 1874.1,1851.9 1854.7,1838.9 1854.7,1811.2 1846,1805.1 1850.5,1776.9 
	1840.8,1764.9 1860.1,1755.7 1868.9,1729 1880.7,1706.6 1897.9,1689.6 1912.8,1694.8 1925.4,1687.7 1938.1,1684 1942.4,1677.2 
	1950.7,1673.5 1964.6,1687.7 1982.2,1682.2 2012.7,1665.8 2054.4,1664 "/>
<polygon id="_x31_02_x5F_east-cameroon" class="st0" points="1850.5,1776.9 1846,1805.1 1854.7,1811.2 1854.7,1838.9 1874.1,1851.9 
	1874.1,1875.9 1892.7,1894.5 1907.6,1913.1 1916.3,1916.9 1923.9,1923.8 1923.9,1948.5 1931.5,1961.8 1923.6,1967.5 1931.5,1986.1 
	1917.8,1986.1 1903,1978.2 1866.1,1969.4 1846,1962.2 1782,1964.1 1777.5,1957.6 1758.1,1962.2 1757.3,1929.5 1753.5,1922.2 
	1756.9,1911.2 1745.5,1892.9 1745.5,1875.9 1758.1,1862.9 1758.1,1852.2 1762.6,1841.2 1779.4,1837.8 1779.4,1824.9 1772.5,1821.1 
	1770.3,1810.8 1762.6,1805.1 1770.3,1791.4 1770.3,1781.9 1765.7,1771.7 1819.5,1764.9 1840.8,1764.9 "/>
<polygon id="_x31_01_x5F_cameroon" class="st0" points="1770.3,1781.9 1770.3,1791.4 1762.6,1805.1 1770.3,1810.8 1772.5,1821.1 
	1779.4,1824.9 1779.4,1837.8 1762.6,1841.2 1758.1,1852.2 1758.1,1862.9 1745.5,1875.9 1745.5,1892.9 1756.9,1911.2 1753.5,1922.2 
	1757.3,1929.5 1758.1,1962.2 1692.3,1957.2 1680.3,1964.1 1612,1964.1 1602.9,1957.2 1610.9,1918.8 1608.6,1908.9 1599.8,1898.7 
	1591.4,1880.4 1594.1,1875.9 1592.5,1867.4 1600.8,1860.7 1603.3,1848.5 1629.2,1825.9 1649.1,1823.6 1661.8,1817 1660.7,1811.3 
	1673.2,1791.6 1673.2,1777.1 1680.3,1768.1 1700.6,1764.9 1721.2,1768.8 1735.1,1760.7 1750.4,1771.7 1765.7,1771.7 "/>
<polygon id="_x31_00_x5F_adamaoua" class="st0" points="1880.7,1706.6 1868.9,1729 1860.1,1755.7 1840.8,1764.9 1819.5,1764.9 
	1765.7,1771.7 1750.4,1771.7 1735.1,1760.7 1721.2,1768.8 1700.6,1764.9 1680.3,1768.1 1676,1750 1678.5,1741.3 1695.1,1729.5 
	1709,1714.4 1706.6,1699.4 1718.1,1690.3 1728.4,1669.3 1728.4,1644.3 1741.1,1630.5 1752.6,1630.5 1764.8,1610 1762.8,1588.5 
	1776.3,1585.7 1781.4,1574.8 1788.5,1576.6 1809,1573.1 1817.3,1579.8 1822.4,1581.3 1835.6,1602.9 1848.3,1618.9 1859.4,1622 
	1864.6,1627.9 1882.5,1635.6 1884.4,1644.8 1892.7,1662.9 1892.7,1670.5 1899.5,1676.9 1897.9,1689.6 "/>
<polygon id="_x39_9_x5F_west-cameroon" class="st0" points="1673.2,1777.1 1673.2,1791.6 1660.7,1811.3 1661.8,1817 1649.1,1823.6 
	1629.2,1825.9 1603.3,1848.5 1600.8,1860.7 1592.5,1867.4 1586.1,1867.4 1579,1875.9 1560.5,1867 1557,1843.3 1544.1,1843.5 
	1539.2,1845.8 1532,1836 1552.6,1809.4 1558.6,1787.3 1550.6,1777.8 1569.3,1761.1 1582.7,1756.8 1591.4,1746.1 1610,1720.7 
	1625.5,1720.7 1648,1715.2 1656.4,1722.3 1658.3,1736.6 1667.4,1733.4 1670.6,1741.3 1678.5,1741.3 1676,1750 1680.3,1768.1 "/>
<polygon id="_x39_8_x5F_benue" class="st0" points="1776.3,1585.7 1762.8,1588.5 1764.8,1610 1752.6,1630.5 1741.1,1630.5 
	1728.4,1644.3 1728.4,1669.3 1718.1,1690.3 1706.6,1699.4 1709,1714.4 1695.1,1729.5 1678.5,1741.3 1670.6,1741.3 1667.4,1733.4 
	1658.3,1736.6 1656.4,1722.3 1648,1715.2 1625.5,1720.7 1610,1720.7 1591.4,1746.1 1591.4,1740.5 1576,1727.5 1566.9,1732.6 
	1556.6,1722.3 1544.3,1722.3 1538.8,1730.4 1530.1,1730.4 1508.3,1735.8 1503.9,1725.1 1491.3,1716.4 1504.3,1702.9 1499.6,1680 
	1508.3,1674 1530.5,1668 1526.5,1655.4 1541.5,1632.5 1535.6,1618.6 1535,1610 1548.1,1604 1545.3,1597 1559.2,1580.7 
	1570.9,1580.7 1583,1587.2 1597.8,1587.2 1616.9,1576.1 1636,1578.2 1650.4,1590.5 1666.7,1585.9 1689.5,1590.5 1703.9,1582.1 
	1709,1565.8 1724.8,1564.9 1755.1,1552.8 1769.8,1550.6 1779.8,1559 1776.9,1568.6 1781.4,1574.8 "/>
<polygon id="_x39_7_x5F_biafra" class="st0" points="1503.9,1725.1 1508.3,1735.8 1530.1,1730.4 1538.8,1730.4 1544.3,1722.3 
	1556.6,1722.3 1566.9,1732.6 1576,1727.5 1591.4,1740.5 1591.4,1746.1 1582.7,1756.8 1569.3,1761.1 1550.6,1777.8 1558.6,1787.3 
	1552.6,1809.4 1532,1836 1526.1,1834 1525.7,1842.3 1515.4,1846.2 1490.1,1846.2 1447.3,1853 1409.7,1856.1 1383.2,1836.7 
	1377.6,1818.5 1397.4,1818.5 1412.9,1811.8 1415.3,1806.3 1429.5,1803.5 1431.1,1794 1441,1786.9 1441,1768.6 1450.5,1751.1 
	1444.9,1741.3 1462,1728.7 1479.8,1711.6 1491.3,1716.4 "/>
<polygon id="_x39_6_x5F_abuja" class="st0" points="1541.5,1632.5 1526.5,1655.4 1530.5,1668 1508.3,1674 1499.6,1680 
	1504.3,1702.9 1491.3,1716.4 1479.8,1711.6 1462,1728.7 1444.9,1741.3 1441,1731.4 1445.3,1703.7 1432.7,1703.3 1419.6,1693.4 
	1410.5,1693 1404.6,1676.8 1392.7,1676.4 1381.6,1662.5 1374.1,1649.5 1384.8,1642.4 1384.8,1635.6 1394.7,1626.5 1414.1,1626.5 
	1428.7,1613.5 1431.9,1603.6 1453.7,1603.6 1466.6,1610 1477,1605.1 1482.5,1593.8 1507.6,1592.8 1523.4,1606.3 1535,1610 
	1535.6,1618.6 "/>
<polygon id="_x39_5_x5F_edo" class="st0" points="1450.5,1751.1 1441,1768.6 1441,1786.9 1431.1,1794 1429.5,1803.5 1415.3,1806.3 
	1412.9,1811.8 1397.4,1818.5 1377.6,1818.5 1374.3,1801.9 1362.7,1790.4 1348.7,1763.1 1328.8,1751.1 1336.3,1741.3 1332.1,1730.9 
	1346.7,1707.4 1356.1,1704.1 1360.8,1697.3 1357,1674.1 1362.7,1668 1381.6,1662.5 1392.7,1676.4 1404.6,1676.8 1410.5,1693 
	1419.6,1693.4 1432.7,1703.3 1445.3,1703.7 1441,1731.4 1444.9,1741.3 "/>
<polygon id="_x39_4_x5F_kwara" class="st0" points="1466.6,1610 1453.7,1603.6 1431.9,1603.6 1428.7,1613.5 1414.1,1626.5 
	1394.7,1626.5 1384.8,1635.6 1384.8,1642.4 1374.1,1649.5 1381.6,1662.5 1362.7,1668 1355.6,1660.9 1336.8,1660.9 1316.1,1628.8 
	1319.9,1616.3 1308.1,1613.4 1293.6,1605.5 1290.8,1593.7 1276.7,1590.9 1266.2,1585.9 1273.9,1570.8 1286.6,1566.5 1290.8,1552.8 
	1283.4,1547.5 1286.2,1540.2 1294.7,1540.2 1298.2,1527.8 1293.3,1524.3 1292.1,1510 1311.8,1514.9 1321.8,1513 1331.1,1518.6 
	1349.3,1520.8 1361.6,1512.6 1370.8,1512.6 1393.1,1505.9 1412.8,1511.9 1414.6,1517.1 1421.3,1517.1 1439.1,1511.1 1450.8,1523.5 
	1457.3,1539.3 1457.3,1552.8 1473.2,1561.2 1473.2,1577 1482.5,1593.8 1477,1605.1 "/>
<polygon id="_x39_3_x5F_oyo" class="st0" points="1276.7,1590.9 1290.8,1593.7 1293.6,1605.5 1308.1,1613.4 1319.9,1616.3 
	1316.1,1628.8 1336.8,1660.9 1355.6,1660.9 1362.7,1668 1357,1674.1 1360.8,1697.3 1356.1,1704.1 1346.7,1707.4 1332.1,1730.9 
	1336.3,1741.3 1328.8,1751.1 1294,1746.9 1261.6,1751.1 1238,1750.2 1244.3,1727.4 1244.3,1709.8 1237,1668.6 1241.2,1654.7 
	1239.1,1646.4 1241.2,1628.8 1241.2,1614.4 1257.4,1606 1259.5,1590.1 1266.2,1585.9 "/>
<polygon id="_x39_2_x5F_dahomey" class="st0" points="1152.5,1651 1165.2,1641.9 1191.2,1635.2 1193.7,1630.6 1241.2,1628.8 
	1239.1,1646.4 1241.2,1654.7 1237,1668.6 1244.3,1709.8 1244.3,1727.4 1238,1750.2 1191.2,1753.4 1157.1,1765.7 1151.1,1754.1 
	1132.1,1740 1132.1,1731.9 1122.2,1726.7 1129.3,1715.5 1129.3,1699.2 1122.9,1692.5 1130.3,1679.5 1129.6,1654.9 1137.4,1648.5 "/>
<polygon id="_x39_1_x5F_dagbon" class="st0" points="1298.2,1527.8 1294.7,1540.2 1286.2,1540.2 1283.4,1547.5 1290.8,1552.8 
	1286.6,1566.5 1273.9,1570.8 1266.2,1585.9 1259.5,1590.1 1257.4,1606 1241.2,1614.4 1241.2,1628.8 1193.7,1630.6 1191.2,1635.2 
	1165.2,1641.9 1152.5,1651 1137.4,1648.5 1121.5,1630.2 1126.8,1619.7 1122.6,1611.6 1130.3,1597.5 1125.4,1590.1 1113.8,1587.7 
	1117.7,1575.3 1117.7,1547.9 1097.2,1529.9 1103.7,1508.5 1145.5,1512.6 1174.3,1489.4 1181,1493 1197.8,1488.6 1223.8,1467.5 
	1223.8,1460.6 1223.8,1452.4 1226.6,1444.9 1246.1,1440.1 1254.8,1452.4 1265.9,1455.6 1269.5,1463.1 1277,1467.1 1284.6,1475.8 
	1281.7,1497 1292.1,1510 1293.3,1524.3 "/>
<polygon id="_x39_0_x5F_gold-coast" class="st0" points="1129.3,1699.2 1129.3,1715.5 1122.2,1726.7 1132.1,1731.9 1132.1,1740 
	1151.1,1754.1 1157.1,1765.7 1145.8,1780.5 1111.3,1780.5 1090.6,1793.5 1083.2,1793.5 1059.6,1808 1041.3,1810.1 1030,1817.6 
	1018.1,1817.6 1010.3,1827.7 993.8,1833.3 982.2,1825.6 958.8,1817.6 957.4,1800.9 962.4,1795.6 962.4,1787.8 949.8,1785.3 
	935.9,1750.5 932.8,1736.6 944.6,1715.5 950.4,1702.6 950.4,1682.8 965.3,1665.7 965.3,1657.9 970,1654.7 988.1,1657.9 
	1018.8,1683.7 1027.2,1683.7 1038.8,1695.7 1051.1,1689.7 1085.3,1686.2 1094.4,1678.8 1105.7,1684.4 1115.9,1685.1 1122.9,1692.5 
	"/>
<polygon id="_x38_9_x5F_lower-volta" class="st0" points="1097.2,1529.9 1117.7,1547.9 1117.7,1575.3 1113.8,1587.7 1125.4,1590.1 
	1130.3,1597.5 1122.6,1611.6 1126.8,1619.7 1121.5,1630.2 1137.4,1648.5 1129.6,1654.9 1130.3,1679.5 1122.9,1692.5 1115.9,1685.1 
	1105.7,1684.4 1094.4,1678.8 1085.3,1686.2 1051.1,1689.7 1038.8,1695.7 1027.2,1683.7 1018.8,1683.7 988.1,1657.9 970,1654.7 
	970,1639 965.3,1615.8 956.3,1608.5 962.9,1593.4 962.1,1588.8 958.4,1580.1 959.6,1563.9 953.8,1548.5 957.9,1541.6 949.7,1532.1 
	957.9,1512.4 1024.6,1513.4 1037.1,1509.3 1065.4,1514.6 1086.1,1502.9 1103.7,1508.5 "/>
<polygon id="_x38_8_x5F_abidjan" class="st0" points="932.8,1736.6 935.9,1750.5 944,1768.3 949.8,1785.3 962.4,1787.8 
	962.4,1795.6 957.4,1800.9 958.8,1817.6 924.2,1810.9 880.2,1809 843,1812.6 841,1803.7 849.9,1781.1 845.6,1766.4 831.9,1761 
	831.9,1753.4 820.4,1727.6 820.4,1714.1 812.5,1707.9 809.8,1696.1 811.2,1680.3 817.3,1663.5 826.6,1657.9 843.2,1670.6 
	863.5,1662.5 870.3,1675 880.8,1675 887.9,1668.6 897.2,1665.7 907.2,1677.2 911.6,1686.7 922.6,1694 922.6,1699.4 929,1704 
	935.5,1702.3 944.6,1715.5 "/>
<polygon id="_x38_7_x5F_zanzan" class="st0" points="826.6,1657.9 843.2,1670.6 863.5,1662.5 870.3,1675 880.8,1675 887.9,1668.6 
	897.2,1665.7 907.2,1677.2 911.6,1686.7 922.6,1694 922.6,1699.4 929,1704 935.5,1702.3 944.6,1715.5 950.4,1702.6 950.4,1682.8 
	965.3,1665.7 965.3,1657.9 970,1654.7 970,1639 965.3,1615.8 956.3,1608.5 962.9,1593.4 962.1,1588.8 953.7,1590.1 936.3,1569 
	913.1,1566.4 897.8,1568.7 890.2,1574 881.7,1574.5 876.5,1583 854.9,1578 849.8,1569.5 845.6,1565.3 830.3,1580.4 830.3,1593.6 
	823.2,1606.3 821.7,1622 809.8,1627.3 815.1,1646.4 "/>
<polygon id="_x38_6_x5F_ivory-coast" class="st0" points="809.8,1696.1 812.5,1707.9 820.4,1714.1 820.4,1727.6 831.9,1753.4 
	831.9,1761 845.6,1766.4 849.9,1781.1 841,1803.7 843,1812.6 818.7,1812.6 788.2,1820.4 777.7,1826.8 757.5,1834.7 744.8,1835.9 
	741.3,1841.8 723.6,1850.1 715,1850.1 712.1,1828.4 709.7,1824 722,1803.3 722,1781.6 714.7,1773.3 702.3,1770 697.2,1766.6 
	697.2,1751.6 678.5,1751.6 674.7,1747 666.7,1745.4 663.6,1739.2 673.4,1732 678.5,1715.2 670.8,1695 664.3,1688.6 667.5,1685.3 
	678.7,1687.5 685.4,1680.1 686.3,1665.9 690.5,1664.8 705.7,1675.9 713.3,1675.4 720.9,1660.5 740.1,1680.8 745,1677.6 
	780.4,1679.8 788.8,1686.7 798.5,1678.4 811.2,1680.3 "/>
<polygon id="_x38_5_x5F_sangbe" class="st0" points="826.6,1657.9 817.3,1663.5 811.2,1680.3 798.5,1678.4 788.8,1686.7 
	780.4,1679.8 745,1677.6 740.1,1680.8 720.9,1660.5 713.3,1675.4 705.7,1675.9 690.5,1664.8 691.1,1660.4 676.1,1654.1 
	679.1,1641.4 694.4,1640.8 704.9,1646 709.7,1641.7 702.5,1627.9 693.3,1624.8 698.5,1612.2 694.6,1594.7 685.5,1594.7 
	683.1,1563.2 691.1,1554.7 699.8,1552.5 708,1538.3 718.5,1538.3 724.5,1549.1 740.2,1552.5 745,1543.9 758.5,1543.9 758.5,1530 
	767.9,1533.8 773.1,1526.7 782.9,1526.7 780.6,1548.7 791.1,1552.5 805,1539.8 817.3,1539.8 820.9,1546.6 831.9,1547.9 
	839.6,1553.5 845.6,1565.3 830.3,1580.4 830.3,1593.6 823.2,1606.3 821.7,1622 809.8,1627.3 815.1,1646.4 826.6,1657.9 "/>
<polygon id="_x38_4_x5F_grain-coast" class="st0" points="678.5,1751.6 697.2,1751.6 697.2,1766.6 702.3,1770 714.7,1773.3 
	722,1781.6 722,1803.3 709.7,1824 712.1,1828.4 715,1850.1 705.4,1850.1 684.5,1842.9 657.3,1831 624.3,1811.6 615.7,1801.8 
	622.5,1795.3 623.7,1784.5 640,1767.9 636.9,1762 639,1751.9 663.6,1739.2 666.7,1745.4 674.7,1747 "/>
<polygon id="_x38_3_x5F_pepper-coast" class="st0" points="670.8,1695 678.5,1715.2 673.4,1732 663.6,1739.2 639,1751.9 636.9,1762 
	640,1767.9 623.7,1784.5 622.5,1795.3 615.7,1801.8 608,1790.9 592,1781.4 583.7,1772.6 566.6,1762 547.5,1754.7 547.5,1748.4 
	528.1,1737.4 518.3,1734.1 511.8,1723.2 522.7,1705.6 538.2,1689.1 543.4,1689.1 557.3,1676.2 556.3,1661.4 572.5,1655 572.5,1639 
	584.1,1636.2 588.7,1644.3 603.3,1639.5 615.3,1653.7 615.3,1666.1 621.9,1678.6 615.3,1695.8 625.6,1695.8 637.2,1705.6 
	647.7,1700.6 651.6,1684.9 658.6,1682.5 664.3,1688.6 "/>
<polygon id="_x38_2_x5F_sierra-leone" class="st0" points="556.3,1661.4 557.3,1676.2 543.4,1689.1 538.2,1689.1 522.7,1705.6 
	511.8,1723.2 502.8,1714.4 485.2,1709.5 437.7,1686.5 449.8,1683.9 437.7,1670.5 438.7,1661.4 430.4,1655 425.2,1656.8 418.5,1641 
	426.3,1641 421.4,1632 419.6,1607.7 429.9,1610.6 437,1598.5 442.7,1598.5 453,1587.5 456.2,1575.7 470.8,1566.1 481.5,1568.6 
	493.9,1562.2 506.3,1562.2 528.7,1563.2 544.4,1592.3 553.1,1601 550.5,1608.9 560.5,1617.2 561.2,1629.9 554.6,1635.3 
	554.6,1646.2 560.5,1646.5 568.4,1637.7 572.5,1639 572.5,1655 "/>
<polygon id="_x38_1_x5F_wassoulou" class="st0" points="683.1,1563.2 685.5,1594.7 694.6,1594.7 698.5,1612.2 693.3,1624.8 
	702.5,1627.9 709.7,1641.7 704.9,1646 694.4,1640.8 679.1,1641.4 676.1,1654.1 691.1,1660.4 690.5,1664.8 686.3,1665.9 
	685.4,1680.1 678.7,1687.5 667.5,1685.3 664.3,1688.6 658.6,1682.5 651.6,1684.9 647.7,1700.6 637.2,1705.6 625.6,1695.8 
	615.3,1695.8 621.9,1678.6 615.3,1666.1 615.3,1653.7 603.3,1639.5 588.7,1644.3 584.1,1636.2 572.5,1639 568.4,1637.7 
	560.5,1646.5 554.6,1646.2 554.6,1635.3 561.2,1629.9 560.5,1617.2 550.5,1608.9 553.1,1601 544.4,1592.3 528.7,1563.2 
	506.3,1562.2 512.7,1549.1 512.7,1521 509.9,1513.5 527.7,1499.7 523.1,1493.6 535.5,1471.2 529.5,1457.4 536.8,1447.7 
	548.6,1453.3 548.6,1459.5 555.6,1465.8 565.6,1449.8 575,1448.1 600.7,1458.8 619.8,1446.3 619.8,1433.8 634,1437.3 643,1448.8 
	643,1456.7 649.6,1458.8 649.6,1482.8 669.4,1493 661.6,1499.7 657.8,1512.1 674.3,1512.8 678.8,1541.6 688.9,1546.1 691.1,1554.7 
	"/>
<polygon id="_x38_0_x5F_guinea" class="st1" points="535.5,1471.2 523.1,1493.6 527.7,1499.7 509.9,1513.5 512.7,1521 512.7,1549.1 
	506.3,1562.2 493.9,1562.2 481.5,1568.6 470.8,1566.1 456.2,1575.7 453,1587.5 442.7,1598.5 437,1598.5 429.9,1610.6 419.6,1607.7 
	417.8,1599.6 402.5,1584.6 396.9,1570.1 378.7,1562.9 364.9,1551.2 359.9,1550.2 345.3,1528.8 343.5,1516.7 331.2,1521 
	328.6,1513.5 336.8,1506.4 346,1484.7 358.5,1482.8 366.3,1476.2 380.9,1478 395.4,1473.7 395.8,1461.3 384.8,1450.6 391.2,1444.6 
	400.4,1444.6 400.4,1425.6 425.6,1425.6 432.5,1430.8 432.5,1437.3 461.1,1439.4 468,1444.6 477,1439.2 488,1441 517,1437.3 
	512.9,1450.8 521.9,1460.9 529.5,1457.4 "/>
<polygon id="_x37_9_x5F_bissau" class="st2" points="328.6,1513.5 324.7,1505.4 314.7,1505.4 307.3,1492.6 308.7,1482.8 
	301.6,1475.9 309.8,1465.9 290.6,1471.2 284.9,1471.2 278.5,1465.9 267.1,1465.9 259.6,1453.1 248,1444.6 261.8,1441.4 274,1434.8 
	291.4,1436.8 305.8,1433.8 314.7,1425.6 400.4,1425.6 400.4,1444.6 391.2,1444.6 384.8,1450.6 395.8,1461.3 395.4,1473.7 
	380.9,1478 366.3,1476.2 358.5,1482.8 346,1484.7 336.8,1506.4 "/>
<polygon id="_x37_8_x5F_south-tchad" class="st3" points="1809,1573.1 1788.5,1576.6 1781.4,1574.8 1776.9,1568.6 1779.8,1559 
	1769.8,1550.6 1780.3,1513.8 1779.8,1492 1789.4,1471.7 1800.1,1468.8 1812.6,1446.1 1820.8,1440.7 1823.3,1430 1827.3,1431.6 
	1833.5,1426.3 1833.5,1419.3 1845.2,1416.7 1861.4,1429.6 1866.8,1452 1876,1463 1880,1480.3 1869.3,1502.2 1873.5,1512.6 
	1873.5,1529.1 1887.8,1546.8 1891.5,1556.6 1898.2,1558.3 1893.3,1565.9 1876.7,1563.1 1856.9,1568.6 1843.6,1563.1 1833.5,1563.1 
	1822.4,1581.3 1817.3,1579.8 "/>
<polygon id="_x37_7_x5F_logone" class="st4" points="2083.1,1631 2066.4,1651.6 2057.5,1653.5 2054.4,1664 2012.7,1665.8 
	1982.2,1682.2 1964.6,1687.7 1950.7,1673.5 1942.4,1677.2 1938.1,1684 1925.4,1687.7 1912.8,1694.8 1897.9,1689.6 1899.5,1676.9 
	1892.7,1670.5 1892.7,1662.9 1884.4,1644.8 1882.5,1635.6 1864.6,1627.9 1859.4,1622 1848.3,1618.9 1835.6,1602.9 1822.4,1581.3 
	1833.5,1563.1 1843.6,1563.1 1856.9,1568.6 1876.7,1563.1 1893.3,1565.9 1898.2,1558.3 1920.3,1559.4 1937.2,1551.3 1951.5,1551.3 
	1971.3,1567 1990.7,1572.1 1990.7,1562.2 1997.2,1551.3 1997.3,1539.5 2012.7,1537.7 2029.9,1543.4 2055.6,1558.5 2055.6,1564.1 
	2062.7,1570 2067.7,1583.9 2067.7,1603.2 2078.4,1613.5 2068.6,1622.9 "/>
<polygon id="_x37_6_x5F_east-tchad" class="st5" points="1997.2,1551.3 1990.7,1562.2 1990.7,1572.1 1971.3,1567 1951.5,1551.3 
	1937.2,1551.3 1920.3,1559.4 1898.2,1558.3 1891.5,1556.6 1887.8,1546.8 1873.5,1529.1 1873.5,1512.6 1869.3,1502.2 1880,1480.3 
	1876,1463 1866.8,1452 1861.4,1429.6 1845.2,1416.7 1847.1,1412.2 1862.9,1408.5 1875.5,1411.4 1883.3,1405.4 1882.5,1389.7 
	1886.8,1385.8 1932.4,1405.4 1945.3,1402.8 1978,1401.3 1971.3,1409.3 1978.4,1425.3 1994.3,1443.3 2002.9,1449.5 2002.9,1528.6 
	1997.3,1539.5 "/>
<polygon id="_x37_5_x5F_wadai" class="st6" points="2262.5,1509.9 2242.7,1516.4 2228.2,1516.4 2217.5,1521.5 2214.3,1549.9 
	2203,1554 2189.4,1568.8 2178.7,1574.4 2167.8,1591.9 2157.4,1596.3 2145.6,1606.4 2117.2,1607.9 2102.1,1613.5 2078.4,1613.5 
	2067.7,1603.2 2067.7,1583.9 2062.7,1570 2055.6,1564.1 2055.6,1558.5 2029.9,1543.4 2012.7,1537.7 1997.3,1539.5 2002.9,1528.6 
	2002.9,1449.5 1994.3,1443.3 1978.4,1425.3 1971.3,1409.3 1978,1401.3 1983.7,1395.9 1985.3,1374.3 2006,1362.8 2030.7,1279.2 
	2051.6,1285.6 2078.3,1276.8 2087.9,1268.9 2148.6,1268.9 2182.8,1257.3 2202.6,1257.3 2213.7,1252.4 2240.5,1253.9 2247.4,1257.3 
	2269.6,1257.3 2283.1,1269.4 2274.4,1276.5 2274.9,1285.6 2278.4,1296.6 2262.4,1314.5 2260,1324.7 2248.5,1330.5 2259.7,1345.4 
	2242.5,1356.6 2232.2,1370 2237.3,1381.5 2238.2,1391 2222.4,1406.8 2219.5,1415.4 2223,1424.6 2235,1426 2240.5,1422.9 
	2253.1,1427.7 2249.7,1439.2 2256.8,1457.4 2256.8,1479.6 2278.2,1494 2279,1504.3 2272.9,1515.8 "/>
<polygon id="_x37_4_x5F_kanem" class="st7" points="2006,1362.8 1985.3,1374.3 1983.7,1395.9 1978,1401.3 1945.3,1402.8 
	1932.4,1405.4 1886.8,1385.8 1882.5,1389.7 1865.2,1385.3 1858.5,1378.4 1839.5,1379.9 1828.4,1370.9 1832,1352.9 1821.7,1339.5 
	1808,1335.6 1792,1334.8 1802.5,1328.4 1808.9,1318.6 1808.9,1307.7 1833,1276.8 1895.9,1208.7 1899.2,1207.1 2014.8,1263.5 
	2030.7,1279.2 "/>
<polygon id="_x37_3_x5F_sahara" class="st8" points="2269.6,1257.3 2247.4,1257.3 2240.5,1253.9 2213.7,1252.4 2202.6,1257.3 
	2182.8,1257.3 2148.6,1268.9 2087.9,1268.9 2078.3,1276.8 2051.6,1285.6 2030.7,1279.2 2014.8,1263.5 1899.2,1207.1 1895.9,1208.7 
	1900,1110 1907.6,1054.3 1919.6,1034.4 1898.1,1009.5 1901.2,1003.1 1885,977.9 1876.3,973.4 1880.4,941.8 1872.2,918 1868.7,895.8 
	1924.1,872.8 2080,951.8 2331.4,1075.8 2331.4,1227.4 2331.4,1269.4 2301.7,1271.2 2283.1,1269.4 "/>
<polygon id="_x37_2_x5F_bornu" class="st9" points="1769.8,1550.6 1755.1,1552.8 1724.8,1564.9 1709,1565.8 1702.5,1557.5 
	1690.9,1549.6 1693.2,1538.4 1690,1512.3 1675.8,1498.9 1666.7,1500.6 1662,1476.5 1654.1,1450.9 1642.5,1438.8 1642.5,1428.6 
	1634.1,1414.2 1624.4,1406.7 1621.8,1398.2 1634.1,1396 1646.9,1390.2 1691.5,1390.1 1717.5,1400.6 1724.6,1406.7 1744.6,1406.7 
	1751.7,1392.4 1766.4,1381.1 1775.8,1381.1 1781.4,1372.4 1788.6,1372.4 1788.6,1380.2 1798.8,1396.5 1811.8,1401.2 1811.8,1424 
	1823.3,1430 1820.8,1440.7 1812.6,1446.1 1800.1,1468.8 1789.4,1471.7 1779.8,1492 1780.3,1513.8 "/>
<polygon id="_x37_1_x5F_kaduna" class="st10" points="1709,1565.8 1703.9,1582.1 1689.5,1590.5 1666.7,1585.9 1650.4,1590.5 
	1636,1578.2 1616.9,1576.1 1597.8,1587.2 1583,1587.2 1570.9,1580.7 1559.2,1580.7 1545.3,1597 1548.1,1604 1535,1610 
	1523.4,1606.3 1507.6,1592.8 1482.5,1593.8 1473.2,1577 1473.2,1561.2 1457.3,1552.8 1457.3,1539.3 1450.8,1523.5 1439.1,1511.1 
	1452.5,1495.9 1454.4,1481.1 1466.6,1467.7 1462.5,1442.1 1462.7,1409.4 1502.7,1391.2 1523,1394.4 1540.6,1408.3 1560.4,1418.5 
	1582.8,1418.5 1600.5,1413.1 1607.9,1405.1 1621.8,1398.2 1624.4,1406.7 1634.1,1414.2 1642.5,1428.6 1642.5,1438.8 1654.1,1450.9 
	1662,1476.5 1666.7,1500.6 1675.8,1498.9 1690,1512.3 1693.2,1538.4 1690.9,1549.6 1702.5,1557.5 "/>
<polygon id="_x37_0_x5F_sokoto" class="st11" points="1462.5,1442.1 1466.6,1467.7 1454.4,1481.1 1452.5,1495.9 1439.1,1511.1 
	1421.3,1517.1 1414.6,1517.1 1412.8,1511.9 1393.1,1505.9 1370.8,1512.6 1361.6,1512.6 1349.3,1520.8 1331.1,1518.6 1321.8,1513 
	1311.8,1514.9 1292.1,1510 1281.7,1497 1284.6,1475.8 1289.3,1469.5 1286.6,1440.1 1291.3,1429 1305.8,1418.3 1311.2,1409.1 
	1313.1,1384.9 1329,1369.5 1342.3,1367.4 1372.4,1369.9 1377.2,1363.5 1394.3,1364 1411.9,1373.2 1427.4,1375.7 1447.2,1391.2 
	1455.2,1409.4 1462.7,1409.4 "/>
<polygon id="_x36_9_x5F_agadez" class="st0" points="1872.2,918 1880.4,941.8 1876.3,973.4 1885,977.9 1901.2,1003.1 1898.1,1009.5 
	1919.6,1034.4 1907.6,1054.3 1900,1110 1895.9,1208.7 1833,1276.8 1808.9,1307.7 1808.9,1318.6 1802.5,1328.4 1792,1334.8 
	1786.7,1334.8 1773.2,1343.8 1771.3,1351 1783,1358.9 1788.6,1372.4 1781.4,1372.4 1775.8,1381.1 1766.4,1381.1 1751.7,1392.4 
	1744.6,1406.7 1724.6,1406.7 1717.5,1400.6 1691.5,1390.1 1646.9,1390.2 1646.9,1373.2 1673.6,1351.2 1675.8,1334.1 1671.5,1311.3 
	1573.2,1258.8 1528.9,1278.5 1481.9,1278.5 1473.9,1270.5 1462.1,1267.9 1454.1,1243.8 1431.7,1243.8 1416.2,1212.3 1391.6,1200.6 
	1318,1200.4 1318,1095 1398.6,1079.9 1478.5,1011.4 1715.1,869.4 1792.1,886.1 1827.9,912.6 1868.7,895.8 "/>
<polygon id="_x36_8_x5F_hausaland" class="st12" points="1391.6,1200.6 1416.2,1212.3 1431.7,1243.8 1454.1,1243.8 1462.1,1267.9 
	1473.9,1270.5 1481.9,1278.5 1528.9,1278.5 1573.2,1258.8 1671.5,1311.3 1675.8,1334.1 1673.6,1351.2 1646.9,1373.2 1646.9,1390.2 
	1634.1,1396 1621.8,1398.2 1607.9,1405.1 1600.5,1413.1 1582.8,1418.5 1560.4,1418.5 1540.6,1408.3 1523,1394.4 1502.7,1391.2 
	1462.7,1409.4 1455.2,1409.4 1447.2,1391.2 1427.4,1375.7 1411.9,1373.2 1394.3,1364 1377.2,1363.5 1372.4,1369.9 1342.3,1367.4 
	1342.3,1352.1 1344.6,1341.1 1341.3,1333.2 1330.7,1331.2 1314.4,1319.2 1314.4,1303.3 1309.4,1294 1305.8,1278.1 1295.6,1270.5 
	1301.9,1268.3 1308.4,1255.7 1310.1,1208.9 1318,1200.4 "/>
<polygon id="_x36_7_x5F_niger" class="st13" points="1305.8,1278.1 1309.4,1294 1314.4,1303.3 1314.4,1319.2 1330.7,1331.2 
	1341.3,1333.2 1344.6,1341.1 1342.3,1352.1 1342.3,1367.4 1329,1369.5 1313.1,1384.9 1311.2,1409.1 1305.8,1418.3 1291.3,1429 
	1286.6,1440.1 1289.3,1469.5 1284.6,1475.8 1277,1467.1 1269.5,1463.1 1265.9,1455.6 1254.8,1452.4 1246.1,1440.1 1226.6,1444.9 
	1223.8,1452.4 1223.8,1460.6 1207.2,1442.5 1217.2,1438.6 1213.9,1428.7 1204.2,1423.3 1194.7,1431.4 1183.8,1429 1154.9,1405.9 
	1150,1401.1 1153.1,1380.7 1139.5,1370.8 1133,1370.8 1119.4,1355.2 1121.1,1341.6 1110.2,1329.7 1110,1308.7 1129.3,1308.6 
	1140,1311.3 1156.4,1303 1171.8,1290.7 1223.9,1288.2 1279.7,1290.7 1287.3,1276.1 1295.6,1270.5 "/>
<polygon id="_x36_6_x5F_songhai" class="st14" points="1110.2,1329.7 1121.1,1341.6 1119.4,1355.2 1133,1370.8 1139.5,1370.8 
	1153.1,1380.7 1150,1401.1 1154.9,1405.9 1128.5,1413.4 1118.4,1411.2 1110.1,1413.4 1103.1,1422.6 1073.6,1431.4 1065.7,1427.1 
	1055.2,1431.6 1041.1,1421.8 1027.7,1417.5 1024.8,1411.8 1009.8,1403 996.8,1403 992.3,1407.9 973,1414.4 965.3,1409.6 945,1396.7 
	933.6,1393.9 933.6,1371.1 949.3,1374.3 955.2,1362.4 955.2,1352.6 974.8,1341.4 987.4,1346.7 997.5,1346.7 1000.7,1333.7 
	1012.2,1333.7 1026.2,1322.9 1039.5,1320.1 1061.1,1302.5 1075.2,1302.6 1080.8,1307.9 1089.3,1301.4 1099.1,1308.7 1110,1308.7 "/>
<polygon id="_x36_5_x5F_upper-volta" class="st15" points="1073.6,1431.4 1103.1,1422.6 1110.1,1413.4 1118.4,1411.2 1128.5,1413.4 
	1154.9,1405.9 1183.8,1429 1194.7,1431.4 1204.2,1423.3 1213.9,1428.7 1217.2,1438.6 1207.2,1442.5 1223.8,1460.6 1223.8,1467.5 
	1197.8,1488.6 1181,1493 1174.3,1489.4 1145.5,1512.6 1103.7,1508.5 1086.1,1502.9 1065.4,1514.6 1037.1,1509.3 1024.6,1513.4 
	957.9,1512.4 956.7,1488 963.9,1478.7 957.2,1464.3 959.3,1455.9 959.1,1440.3 965.3,1429.3 965.3,1409.6 973,1414.4 992.3,1407.9 
	996.8,1403 1009.8,1403 1024.8,1411.8 1027.7,1417.5 1041.1,1421.8 1055.2,1431.6 1065.7,1427.1 "/>
<polygon id="_x36_4_x5F_houet" class="st16" points="957.9,1512.4 949.7,1532.1 957.9,1541.6 953.8,1548.5 959.6,1563.9 
	958.4,1580.1 962.1,1588.8 953.7,1590.1 936.3,1569 913.1,1566.4 897.8,1568.7 890.2,1574 881.7,1574.5 876.5,1583 854.9,1578 
	849.8,1569.5 845.6,1565.3 839.6,1553.5 831.9,1547.9 820.9,1546.6 817.3,1539.8 821.4,1520.3 817.3,1510.2 830,1501.2 
	834.5,1485.8 828.2,1468.3 846.5,1459.3 863,1459.3 873.5,1444.7 869.9,1423.6 884.4,1418.4 886.5,1412.2 878.8,1401.1 
	891.8,1387.8 901.9,1385.6 917.5,1399.3 925.4,1399.5 926.3,1395.9 933.6,1393.9 945,1396.7 965.3,1409.6 965.3,1429.3 
	959.1,1440.3 959.3,1455.9 957.2,1464.3 963.9,1478.7 956.7,1488 "/>
<polygon id="_x36_3_x5F_gambia" class="st17" points="425.6,1425.6 400.4,1425.6 314.7,1425.6 305.8,1433.8 291.4,1436.8 
	274,1434.8 261.8,1441.4 248,1444.6 239.2,1439.1 239.2,1415.1 241.5,1407.9 236.9,1390.5 251,1382.9 251,1378.3 305.5,1378.3 
	315,1369.1 338.3,1366.8 347.2,1374.7 355,1376.7 366.2,1386.5 380.6,1381.3 391.5,1386.5 403.6,1387.9 412.3,1392.4 412.3,1401.6 
	420,1405.7 425.6,1417.7 "/>
<polygon id="_x36_2_x5F_fulo" class="st18" points="517,1437.3 488,1441 477,1439.2 468,1444.6 461.1,1439.4 432.5,1437.3 
	432.5,1430.8 425.6,1425.6 425.6,1417.7 420,1405.7 412.3,1401.6 412.3,1392.4 403.6,1387.9 391.5,1386.5 380.6,1381.3 
	366.2,1386.5 355,1376.7 347.2,1374.7 338.3,1366.8 352.7,1354.4 343.6,1341.9 350.1,1326.1 341.3,1321.9 342.9,1306.1 356,1295.9 
	361,1284.5 371.1,1276.9 364.2,1261.5 358.9,1256.2 376.4,1231 392.4,1249.2 412.3,1251.3 420,1273.2 435.3,1282.4 441.1,1296.6 
	457.6,1304 462.5,1318 477,1320.1 477.1,1337.4 486.9,1346.7 488.9,1365.5 482,1374.2 494.8,1389.4 501.4,1388 509.8,1403 
	517.4,1408.5 512.9,1421.7 "/>
<polygon id="_x36_1_x5F_senegal" class="st19" points="207.3,1320.1 216.2,1314.7 236.9,1289.7 253.3,1263.5 254.1,1251.3 
	252.6,1239 262.8,1235.7 270.4,1226.7 305.2,1228.1 328.1,1219.8 351,1224.8 363,1221.2 376.4,1231 358.9,1256.2 364.2,1261.5 
	371.1,1276.9 361,1284.5 356,1295.9 342.9,1306.1 341.3,1321.9 350.1,1326.1 343.6,1341.9 352.7,1354.4 338.3,1366.8 315,1369.1 
	305.5,1378.3 251,1378.3 245.3,1372.4 245.1,1364.2 236.9,1353.2 226.6,1332.5 217.8,1321.7 "/>
<polygon id="_x36_0_x5F_sikasso" class="st20" points="873.5,1444.7 863,1459.3 846.5,1459.3 828.2,1468.3 834.5,1485.8 830,1501.2 
	817.3,1510.2 821.4,1520.3 817.3,1539.8 805,1539.8 791.1,1552.5 780.6,1548.7 782.9,1526.7 773.1,1526.7 767.9,1533.8 758.5,1530 
	758.5,1543.9 745,1543.9 740.2,1552.5 724.5,1549.1 718.5,1538.3 708,1538.3 699.8,1552.5 691.1,1554.7 688.9,1546.1 678.8,1541.6 
	674.3,1512.8 657.8,1512.1 661.6,1499.7 669.4,1493 649.6,1482.8 682.2,1452.6 686,1434.9 704.4,1419.6 726.3,1418.2 740.5,1408.9 
	740.5,1395.3 756.1,1384.9 771,1388.6 783.9,1394.2 791.6,1401.9 813.3,1397.4 820.3,1407.5 831.1,1409.3 844.7,1427.1 
	861.9,1419.4 869.9,1423.6 "/>
<polygon id="_x35_9_x5F_kayes" class="st21" points="756.1,1384.9 740.5,1395.3 740.5,1408.9 726.3,1418.2 704.4,1419.6 686,1434.9 
	682.2,1452.6 649.6,1482.8 649.6,1458.8 643,1456.7 643,1448.8 634,1437.3 619.8,1433.8 619.8,1446.3 600.7,1458.8 575,1448.1 
	565.6,1449.8 555.6,1465.8 548.6,1459.5 548.6,1453.3 536.8,1447.7 529.5,1457.4 521.9,1460.9 512.9,1450.8 517,1437.3 
	512.9,1421.7 517.4,1408.5 509.8,1403 501.4,1388 494.8,1389.4 482,1374.2 488.9,1365.5 486.9,1346.7 477.1,1337.4 477,1320.1 
	491.6,1302.6 490,1289.1 502.9,1277.3 514.8,1277.6 527,1288.2 535.3,1302.6 541.7,1298.9 542.9,1290.6 551.4,1282.1 570,1283.6 
	586.3,1288.8 617.1,1283.5 615.3,1272.8 623.6,1270.7 625.7,1280.1 776.6,1280.2 776.6,1291.6 763.8,1308.6 773.5,1320.1 
	773.1,1334.6 759.6,1336.3 749.6,1351.3 745,1366.5 750.6,1371.4 "/>
<polygon id="_x35_8_x5F_mali" class="st22" points="1061.1,1302.5 1039.5,1320.1 1026.2,1322.9 1012.2,1333.7 1000.7,1333.7 
	997.5,1346.7 987.4,1346.7 974.8,1341.4 955.2,1352.6 955.2,1362.4 949.3,1374.3 933.6,1371.1 933.6,1393.9 926.3,1395.9 
	925.4,1399.5 917.5,1399.3 901.9,1385.6 891.8,1387.8 878.8,1401.1 886.5,1412.2 884.4,1418.4 869.9,1423.6 861.9,1419.4 
	844.7,1427.1 831.1,1409.3 820.3,1407.5 813.3,1397.4 791.6,1401.9 783.9,1394.2 771,1388.6 756.1,1384.9 750.6,1371.4 745,1366.5 
	749.6,1351.3 759.6,1336.3 773.1,1334.6 773.5,1320.1 763.8,1308.6 776.6,1291.6 776.6,1280.2 813.4,1280.1 831.4,1275.5 
	847.7,1280.2 864.5,1274.8 901.8,1266 909.7,1269.6 921.5,1266 930.5,1267.9 941.8,1263.4 953.4,1263.4 961,1268.4 964.5,1286.8 
	978.1,1292.9 998.2,1287.3 1020.2,1290.6 1050.1,1301.3 "/>
<polygon id="_x35_7_x5F_gao" class="st23" points="1318,1200.4 1310.1,1208.9 1308.4,1255.7 1301.9,1268.3 1295.6,1270.5 
	1287.3,1276.1 1279.7,1290.7 1223.9,1288.2 1171.8,1290.7 1156.4,1303 1140,1311.3 1129.3,1308.6 1110,1308.7 1099.1,1308.7 
	1089.3,1301.4 1080.8,1307.9 1075.2,1302.6 1061.1,1302.5 1050.1,1301.3 1020.2,1290.6 998.2,1287.3 978.1,1292.9 964.5,1286.8 
	961,1268.4 953.4,1263.4 952.9,1255.6 938.5,1245 942.5,1236.9 942.5,1228.9 978.7,1221.3 997.6,1212.8 1019.6,1205.3 1012.7,1179 
	1055.3,1147.1 1055.3,1083 1133,978.3 1161.7,996.5 1159.4,1014.2 1171,1014.2 1185.8,1021.7 1197.7,1037.7 1216.2,1034.1 
	1226,1049.5 1253.3,1049.5 1267.8,1060.8 1268.3,1078.4 1257.4,1092.8 1271.9,1103.6 1318,1095 "/>
<polygon id="_x35_6_x5F_timbuktu" class="st24" points="1055.3,1083 1055.3,1147.1 1012.7,1179 1019.6,1205.3 997.6,1212.8 
	978.7,1221.3 942.5,1228.9 942.5,1236.9 938.5,1245 952.9,1255.6 953.4,1263.4 941.8,1263.4 930.5,1267.9 921.5,1266 909.7,1269.6 
	901.8,1266 864.5,1274.8 847.7,1280.2 831.4,1275.5 822.2,1277.4 813.4,1280.1 814.8,1270.3 823.5,1258.2 823.5,1244.7 
	813.8,1239.4 811,1226.3 805.1,1219.7 765.6,793.2 841.3,793.1 1133,978.3 "/>
<polygon id="_x35_5_x5F_mauritania" class="st25" points="813.4,1280.1 776.6,1280.1 625.7,1280.1 623.6,1270.7 615.3,1272.8 
	617.1,1283.5 586.3,1288.8 570,1283.6 551.4,1282.1 542.9,1290.6 541.7,1298.9 535.3,1302.6 527,1288.2 514.8,1277.6 502.9,1277.3 
	490,1289.1 491.6,1302.6 477,1320.1 462.5,1318 457.6,1304 441.1,1296.6 435.3,1282.4 420,1273.2 412.3,1251.3 420.3,1241.9 
	433.7,1240.1 448.6,1234.3 452.6,1221.9 463.8,1216.9 482.7,1196.2 468.6,1176.6 468.6,1145.7 458.4,1133 433.7,1114.9 
	431.9,1107.6 432.5,983.7 432.5,903.2 437.3,895.1 453.8,883.9 484.8,873.8 484.8,789.6 490.5,789.6 490.5,740.9 656.7,740.9 
	656.8,676 841.3,793.1 765.6,793.2 805.1,1219.7 811,1226.3 813.8,1239.4 823.5,1244.7 823.5,1258.2 814.8,1270.3 "/>
<polygon id="_x35_4_x5F_arguin" class="st26" points="433.7,1114.9 458.4,1133 468.6,1145.7 468.6,1176.6 482.7,1196.2 
	463.8,1216.9 452.6,1221.9 448.6,1234.3 433.7,1240.1 420.3,1241.9 412.3,1251.3 392.4,1249.2 376.4,1231 363,1221.2 351,1224.8 
	328.1,1219.8 305.2,1228.1 270.4,1226.7 262.8,1235.7 252.6,1239 257.7,1217.6 268.6,1198.7 278.4,1155.2 276.2,1134.8 265,1092.8 
	254.4,1086.2 260.6,1077.2 261,1068.1 267.9,1057.6 263.9,1027.1 257,1013.6 246.8,1018.4 235.9,991.1 235.1,983.7 432.5,983.7 
	431.9,1107.6 "/>
<polygon id="_x35_3_x5F_western-sahara" class="st27" points="656.7,740.9 490.5,740.9 490.5,789.6 484.8,789.6 484.8,873.8 
	453.8,883.9 437.3,895.1 432.5,903.2 432.5,983.7 235.1,983.7 227.9,995.8 227.9,969.2 239.6,939.4 245.6,930.6 253.7,931 
	259,920.6 264.2,903.4 273,895.8 271.1,887 280.4,873.5 281.4,864.1 295.7,849.2 310.4,830 329.5,816.2 338.2,805.2 339.2,778.6 
	358,740.9 358.3,732.3 377.5,718.7 392,713.8 409.9,697.4 417.5,672.6 436.1,643.6 445,640.6 458.3,640.6 476,633 488.4,633 
	500.6,627.8 525.5,655.8 656.7,655.8 656.8,676 "/>
<polygon id="_x35_2_x5F_juba" class="st28" points="3304.7,2068 3276.7,2102.3 3233.2,2158.9 3202.3,2116.1 3202.3,1929.9 
	3222,1910.9 3246.6,1874.9 3257.8,1861.9 3273,1861.9 3289.9,1859.2 3306.5,1870.7 3306.5,1993.9 3334.1,2039 "/>
<polygon id="_x35_1_x5F_mogadishu" class="st29" points="3510.6,1901.2 3480.8,1929.9 3461.1,1952.6 3432.4,1968.2 3409.7,1979 
	3375.8,2000 3334.1,2039 3306.5,1993.9 3306.5,1870.7 3289.9,1859.2 3304.7,1851.2 3309.1,1840.5 3351.1,1820.4 3406.9,1824.4 
	3430.4,1800.3 3441.9,1819.9 3465.6,1819.9 3465.6,1849.9 3474.2,1853.4 3474.2,1870.2 3513.5,1896.2 "/>
<polygon id="_x35_0_x5F_galmudug" class="st30" points="3670.7,1654.1 3655.2,1669.3 3653.2,1689.2 3647,1703.6 3619.4,1738.2 
	3614.3,1761.2 3610.8,1767 3604.1,1786.9 3570.3,1830.8 3559.8,1851.1 3513.5,1896.2 3474.2,1870.2 3474.2,1853.4 3465.6,1849.9 
	3465.6,1819.9 3441.9,1819.9 3430.4,1800.3 3604.3,1619.8 3604.1,1627 3672.4,1649.7 "/>
<polygon id="_x34_9_x5F_punt" class="st31" points="3615.8,1499.1 3632.3,1494.4 3641.4,1489.1 3659.4,1485.8 3666.3,1485.8 
	3689,1477 3693.4,1467.3 3704.4,1460.7 3724.9,1466.5 3729,1477.2 3719.6,1494.4 3720.2,1528.1 3713.6,1548.2 3716.9,1558.5 
	3707.2,1580.4 3709.1,1586.1 3699.2,1598.5 3699.2,1609.3 3684.6,1626.2 3680.7,1638.3 3672.4,1649.7 3604.1,1627 3604.3,1619.8 
	3605.8,1496.4 "/>
<polygon id="_x34_8_x5F_warsangali" class="st32" points="3605.8,1496.4 3604.3,1619.8 3562.4,1664.5 3506.5,1664.5 3349.3,1612.7 
	3321.4,1578.6 3356.9,1529.8 3371.4,1542.7 3407.6,1540.1 3446.8,1519.3 3482.4,1528.9 3506.8,1519.3 3521.3,1509.1 3540.7,1501.4 
	3546,1506.5 3572.7,1504.8 3583.9,1496.4 "/>
<polygon id="_x34_7_x5F_adal" class="st33" points="3356.9,1529.8 3321.4,1578.6 3297.4,1549.8 3276,1511 3267.1,1511 3251.9,1516 
	3242.9,1511 3242.1,1482.4 3260.8,1452.6 3272.8,1440.6 3280.3,1434.6 3290.7,1441.4 3298.2,1431.1 3312.2,1424.1 3323.6,1439.5 
	3324.5,1460.4 3312.2,1467.1 3299.5,1469.7 3283.1,1482.2 3284,1488.8 3294.3,1488 3294.7,1481.7 3316,1481.3 3332.5,1493.7 
	3335.6,1506.6 "/>
<polygon id="_x34_6_x5F_ogaden" class="st34" points="3406.9,1824.4 3351.1,1820.4 3309.1,1840.5 3304.7,1851.2 3289.9,1859.2 
	3273,1861.9 3257.8,1861.9 3246.6,1874.9 3226.1,1869.9 3210,1871.7 3190.6,1856.6 3174,1840.7 3174,1817.8 3170.8,1799.5 
	3186.2,1792.4 3201.3,1780.9 3214,1786.9 3220.7,1766.7 3236.5,1755.6 3236.5,1746.5 3241.3,1740.5 3248.8,1734.6 3257.8,1731.9 
	3264.5,1715.4 3263.6,1694.4 3256.9,1682.4 3272.1,1658.7 3291.3,1653.3 3296.6,1644.9 3349.3,1612.7 3506.5,1664.5 3562.4,1664.5 
	3430.4,1800.3 "/>
<polygon id="_x34_5_x5F_harar" class="st35" points="3276,1511 3297.4,1549.8 3321.4,1578.6 3349.3,1612.7 3296.6,1644.9 
	3291.3,1653.3 3272.1,1658.7 3256.9,1682.4 3263.6,1694.4 3264.5,1715.4 3257.8,1731.9 3248.8,1734.6 3241.3,1740.5 3228.2,1736.2 
	3220.7,1727.4 3205.2,1719.1 3171.6,1691 3174.6,1680 3183.7,1673.3 3165.3,1655.7 3165.3,1641.7 3154.6,1619.8 3157.4,1610.1 
	3156.4,1598 3164.3,1589.1 3162.5,1571.1 3181.6,1560 3177.9,1553 3177.9,1541.4 3172.3,1532.4 3171.6,1517.3 3183.7,1517.8 
	3206.3,1509.1 3225.4,1513.1 3242.9,1511 3251.9,1516 3267.1,1511 "/>
<polygon id="_x34_4_x5F_sidamo" class="st36" points="3049.2,1713.2 3056.7,1719.1 3068.2,1713.2 3085.2,1719.1 3101.9,1719.1 
	3113.8,1713.2 3122.5,1710.8 3130.8,1696.6 3171.6,1691 3205.2,1719.1 3220.7,1727.4 3228.2,1736.2 3241.3,1740.5 3236.5,1746.5 
	3236.5,1755.6 3220.7,1766.7 3214,1786.9 3201.3,1780.9 3186.2,1792.4 3170.8,1799.5 3174,1817.8 3174,1840.7 3190.6,1856.6 
	3147,1873.6 3142.7,1884.3 3128.4,1898.9 3111.8,1897 3075.3,1888.7 3061.1,1891.8 3049.2,1883.9 2991.8,1847.2 2985.8,1847.2 
	2996.3,1829.8 2994.3,1816.3 3005.5,1804.7 3008.2,1791.6 3028.3,1768.8 3031.8,1746.4 3019.8,1734.9 3019.8,1721.7 3025.2,1711.7 
	"/>
<polygon id="_x34_3_x5F_kaffa" class="st37" points="2985.8,1847.2 2958.8,1847.2 2946.7,1838.1 2937.4,1830.5 2940,1804.1 
	2926.6,1798.3 2912.8,1801.6 2909.9,1792.5 2899.8,1784.2 2893.3,1768.3 2891.1,1745.2 2875.6,1732.8 2866.5,1718 2858.9,1718 
	2845.6,1706.1 2843.4,1691.3 2828.2,1680.4 2791.6,1674.2 2799.8,1662.3 2803.2,1644.7 2817.6,1640.6 2835.2,1643.8 2850.2,1635.6 
	2861.5,1638.3 2881.2,1655.7 2893.2,1652.6 2894.7,1643.4 2916,1630.6 2934.9,1640.7 2956.1,1630.6 2976.6,1636 3004.8,1628.7 
	3017.5,1646.8 3029.5,1650.3 3021.7,1663.4 3023.7,1682.4 3013.6,1702.1 3025.2,1711.7 3019.8,1721.7 3019.8,1734.9 3031.8,1746.4 
	3028.3,1768.8 3008.2,1791.6 3005.5,1804.7 2994.3,1816.3 2996.3,1829.8 "/>
<polygon id="_x34_2_x5F_shewa" class="st38" points="3091.6,1546 3121.2,1535.7 3131.1,1515.9 3137.7,1513.1 3142.4,1520.1 
	3171.6,1517.3 3172.3,1532.4 3177.9,1541.4 3177.9,1553 3181.6,1560 3162.5,1571.1 3164.3,1589.1 3156.4,1598 3157.4,1610.1 
	3154.6,1619.8 3165.3,1641.7 3165.3,1655.7 3183.7,1673.3 3174.6,1680 3171.6,1691 3130.8,1696.6 3122.5,1710.8 3113.8,1713.2 
	3101.9,1719.1 3085.2,1719.1 3068.2,1713.2 3056.7,1719.1 3049.2,1713.2 3025.2,1711.7 3013.6,1702.1 3023.7,1682.4 3021.7,1663.4 
	3029.5,1650.3 3017.5,1646.8 3004.8,1628.7 3004.8,1612.9 3016.3,1598.2 3028.7,1595.5 3029.5,1578.9 3034.5,1573.5 3055.2,1562.2 
	3073.7,1541.8 3084.9,1541 "/>
<polygon id="_x34_1_x5F_welega" class="st39" points="2892.8,1530.3 2913.3,1556.1 2954.6,1556.1 2971.9,1535.7 2982.4,1545.3 
	2995.5,1543.2 3006.7,1560 3022.1,1560 3034.5,1573.5 3029.5,1578.9 3028.7,1595.5 3016.3,1598.2 3004.8,1612.9 3004.8,1628.7 
	2976.6,1636 2956.1,1630.6 2934.9,1640.7 2916,1630.6 2894.7,1643.4 2893.2,1652.6 2881.2,1655.7 2861.5,1638.3 2850.2,1635.6 
	2851.5,1616.8 2846.1,1589.6 2853,1563.3 2861.8,1557 2860.6,1545.4 2865.9,1530.1 2883.8,1522.4 2890.4,1522.4 "/>
<polygon id="_x34_0_x5F_gojjam" class="st40" points="3001.6,1461.5 3003.9,1471.8 3020.3,1480.6 3042.2,1500.1 3062.9,1504.1 
	3074.1,1511 3076.3,1527.3 3070.1,1534.9 3073.7,1541.8 3055.2,1562.2 3034.5,1573.5 3022.1,1560 3006.7,1560 2995.5,1543.2 
	2982.4,1545.3 2971.9,1535.7 2954.6,1556.1 2913.3,1556.1 2892.8,1530.3 2890.4,1522.4 2891.4,1500.4 2901.7,1484 2899.6,1474.8 
	2909.4,1464.5 2924.2,1433.8 2941.1,1424.6 2953.9,1424.1 2952.2,1448.6 2962.4,1456.6 2983.4,1462.8 "/>
<polygon id="_x33_9_x5F_wollo" class="st41" points="3242.9,1511 3225.4,1513.1 3206.3,1509.1 3183.7,1517.8 3171.6,1517.3 
	3142.4,1520.1 3137.7,1513.1 3131.1,1515.9 3121.2,1535.7 3091.6,1546 3084.9,1541 3073.7,1541.8 3070.1,1534.9 3076.3,1527.3 
	3074.1,1511 3096.9,1494.3 3091.2,1483 3091.9,1464.1 3085.3,1450.8 3092.6,1436 3107.8,1433.2 3118.3,1446.2 3133.8,1448.2 
	3156.5,1443 3162.5,1435.8 3171.6,1433.2 3190.4,1410.4 3185.2,1397.6 3200.3,1389.7 3210.3,1378.9 3227.4,1391.2 3248.5,1402 
	3256.8,1421.1 3268.8,1429.1 3272.8,1440.6 3260.8,1452.6 3242.1,1482.4 "/>
<polygon id="_x33_8_x5F_semien" class="st42" points="3033,1366.2 3040.4,1379.8 3053,1387.6 3074.8,1383.3 3087.4,1397.6 
	3095.8,1399.8 3104.9,1411.4 3114.1,1411.4 3118.3,1424.1 3107.8,1433.2 3092.6,1436 3085.3,1450.8 3091.9,1464.1 3091.2,1483 
	3096.9,1494.3 3074.1,1511 3062.9,1504.1 3042.2,1500.1 3020.3,1480.6 3029.8,1465.4 3028.9,1458.9 3022.1,1448.2 3014.8,1447.4 
	3008.9,1452.1 3001.7,1452.5 3001.6,1461.5 2983.4,1462.8 2962.4,1456.6 2952.2,1448.6 2953.9,1424.1 2956.5,1397.6 2973.5,1351.1 
	2999.4,1354.5 3006.3,1344.9 3017,1342.9 3021.2,1352.1 3030.8,1357.7 "/>
<polygon id="_x33_7_x5F_tigray" class="st43" points="3162.5,1335.9 3177.6,1352.2 3199.9,1354.2 3209.9,1369.8 3210.3,1378.9 
	3200.3,1389.7 3185.2,1397.6 3190.4,1410.4 3171.6,1433.2 3162.5,1435.8 3156.5,1443 3133.8,1448.2 3118.3,1446.2 3107.8,1433.2 
	3118.3,1424.1 3114.1,1411.4 3104.9,1411.4 3095.8,1399.8 3087.4,1397.6 3074.8,1383.3 3053,1387.6 3040.4,1379.8 3033,1366.2 
	3030.8,1357.7 3048.4,1326.3 3058.2,1331 3065.7,1333.6 3070.9,1342.6 3080.6,1342.6 3106.7,1333 3118.4,1339 3129.3,1335.2 
	3146.4,1335.2 "/>
<polygon id="_x33_6_x5F_afar" class="st44" points="3143.4,1300.9 3140.6,1288.9 3146.4,1281 3156.9,1290.9 3154.9,1300.9 
	3163.7,1307.6 3181.2,1307.6 3198.7,1322.8 3213.1,1326.3 3242.1,1362.6 3255.6,1368.6 3272.8,1387.2 3274.8,1400 3282.7,1400 
	3293.5,1415.9 3302.6,1412.3 3310.2,1419.5 3312.2,1424.1 3298.2,1431.1 3290.7,1441.4 3280.3,1434.6 3272.8,1440.6 3268.8,1429.1 
	3256.8,1421.1 3248.5,1402 3227.4,1391.2 3210.3,1378.9 3209.9,1369.8 3199.9,1354.2 3177.6,1352.2 3162.5,1335.9 3146.4,1335.2 
	3139.5,1321.9 3141.3,1311.8 3138.8,1300.2 "/>
<polygon id="_x33_5_x5F_eritrea" class="st45" points="2966.3,1303.1 2975.2,1291.5 2991.2,1237.9 2990.9,1225.3 2997.4,1216.1 
	2997.4,1201.4 3017.2,1198.5 3022,1190.3 3062.3,1170.8 3070.8,1157 3078.1,1155 3086.9,1165.5 3099.7,1191.7 3108.5,1221 
	3113.1,1259.6 3121.8,1269.8 3124.4,1280.1 3129.6,1280.1 3138.8,1300.2 3141.3,1311.8 3139.5,1321.9 3146.4,1335.2 3129.3,1335.2 
	3118.4,1339 3106.7,1333 3080.6,1342.6 3070.9,1342.6 3065.7,1333.6 3058.2,1331 3048.4,1326.3 3030.8,1357.7 3021.2,1352.1 
	3017,1342.9 3006.3,1344.9 2999.4,1354.5 2973.5,1351.1 2971.3,1327.1 "/>
<polygon id="_x33_4_x5F_equatoria" class="st46" points="2828.2,1680.4 2843.4,1691.3 2845.6,1706.1 2858.9,1718 2866.5,1718 
	2875.6,1732.8 2891.1,1745.2 2893.3,1768.3 2899.8,1784.2 2909.9,1792.5 2912.8,1801.6 2926.6,1798.3 2940,1804.1 2937.4,1830.5 
	2946.7,1838.1 2940.9,1841.3 2862.6,1841.3 2845.2,1858.8 2819.9,1883.6 2800.3,1883.6 2791.2,1877.2 2775.8,1883.6 2759.2,1883.6 
	2750.7,1895.2 2739.2,1889.5 2721.9,1888.7 2697.5,1880.6 2683.9,1894 2670.2,1893.2 2663.7,1874.7 2652.1,1873.1 2629.7,1852.5 
	2629.7,1841.8 2618.7,1836.2 2614.2,1818.1 2634.5,1794.6 2636.8,1768.8 2682.9,1769.2 2691.6,1774.2 2715.5,1774.2 2722.8,1769.2 
	2708.3,1745.7 2702.7,1730.9 2715.8,1732.8 2736.8,1727.4 2761.2,1730.9 2773.1,1720.5 2773.8,1711.1 2785.4,1703.9 2783.5,1688.3 
	2791.6,1674.2 "/>
<polygon id="_x33_3_x5F_bar-el-gazal" class="st47" points="2708.3,1745.7 2722.8,1769.2 2715.5,1774.2 2691.6,1774.2 
	2682.9,1769.2 2636.8,1768.8 2634.5,1794.6 2614.2,1818.1 2618.7,1836.2 2602,1852.5 2577.1,1843 2557.6,1857.5 2532.8,1843.9 
	2518.7,1822.6 2511,1822.2 2495.4,1804 2498.3,1786.1 2487.6,1776.2 2477.2,1774.9 2473.4,1767.9 2454.3,1761.1 2455,1753.7 
	2449,1745 2452,1739.9 2451.8,1733.6 2436.9,1724.1 2433.6,1715.2 2401.7,1698 2390,1689.4 2397.5,1683.3 2393.8,1673.1 
	2382.8,1671.4 2375.1,1656.5 2340.9,1649.6 2339.7,1639.1 2343.7,1629.8 2318.8,1629.8 2307.1,1627.7 2309.2,1616.9 2302.9,1608.1 
	2309.9,1602.3 2314.6,1593.4 2318.1,1593.4 2326.1,1578.8 2346.1,1572.1 2371.9,1574.3 2378.5,1554.6 2389.6,1544.6 2406,1545 
	2421.6,1534.8 2438,1548.2 2457.5,1552.6 2469.9,1574.3 2478.4,1568.6 2517.6,1571.5 2541.4,1595.3 2557.4,1600.6 2593.4,1602.5 
	2610.9,1612.4 2610.9,1621.5 2621.5,1631.9 2636.2,1648.2 2651.6,1652.6 2661.9,1666 2664.4,1682.3 2681.7,1717.8 2702.7,1730.9 "/>
<polygon id="_x33_2_x5F_upper-nile" class="st48" points="2865.9,1530.1 2860.6,1545.4 2861.8,1557 2853,1563.3 2846.1,1589.6 
	2851.5,1616.8 2850.2,1635.6 2835.2,1643.8 2817.6,1640.6 2803.2,1644.7 2799.8,1662.3 2791.6,1674.2 2783.5,1688.3 2785.4,1703.9 
	2773.8,1711.1 2773.1,1720.5 2761.2,1730.9 2736.8,1727.4 2715.8,1732.8 2702.7,1730.9 2681.7,1717.8 2664.4,1682.3 2661.9,1666 
	2651.6,1652.6 2636.2,1648.2 2621.5,1631.9 2610.9,1621.5 2610.9,1612.4 2593.4,1602.5 2597,1588.8 2612.5,1588.8 2613.1,1565.5 
	2647.8,1565.5 2663.9,1579.8 2694.9,1575.7 2703.3,1568.5 2716.9,1569.1 2727.2,1560.7 2729,1545.8 2742.1,1526.1 2761.2,1507 
	2761.2,1478.9 2747.5,1461.5 2779.4,1461.5 2779.4,1450.8 2805.1,1450.8 2799.3,1475.3 2817.7,1489.6 2832.1,1519.8 2844.9,1519.8 
	"/>
<polygon id="_x33_1_x5F_darfur" class="st49" points="2517.6,1571.5 2478.4,1568.6 2469.9,1574.3 2457.5,1552.6 2438,1548.2 
	2421.6,1534.8 2406,1545 2389.6,1544.6 2378.5,1554.6 2371.9,1574.3 2346.1,1572.1 2326.1,1578.8 2318.1,1593.4 2314.6,1593.4 
	2314.6,1573 2291.1,1537.5 2272.9,1515.8 2279,1504.3 2278.2,1494 2256.8,1479.6 2256.8,1457.4 2249.7,1439.2 2253.1,1427.7 
	2240.5,1422.9 2235,1426 2223,1424.6 2219.5,1415.4 2222.4,1406.8 2238.2,1391 2237.3,1381.5 2232.2,1370 2242.5,1356.6 
	2259.7,1345.4 2248.5,1330.5 2260,1324.7 2262.4,1314.5 2278.4,1296.6 2274.9,1285.6 2274.4,1276.5 2283.1,1269.4 2301.7,1271.2 
	2331.4,1269.4 2331.4,1227.4 2481.8,1227.4 2490.7,1308.1 2511,1357.1 2515.2,1375.6 2509.8,1384.6 2509.8,1395.3 2491.9,1409.7 
	2491.9,1424 2488.3,1434.7 2488.3,1450.9 2499.1,1467 2499.1,1507 2517.6,1551.8 "/>
<polygon id="_x33_0_x5F_kordofan" class="st50" points="2517.6,1571.5 2517.6,1551.8 2499.1,1507 2499.1,1467 2488.3,1450.9 
	2488.3,1434.7 2491.9,1424 2491.9,1409.7 2509.8,1395.3 2509.8,1384.6 2515.2,1375.6 2511,1357.1 2490.7,1308.1 2481.8,1227.4 
	2722,1227.4 2755.8,1292.8 2739,1306 2731.5,1321.5 2722,1321.5 2716.9,1329.9 2716.9,1350.3 2728.9,1357.7 2733.3,1371.5 
	2743.5,1385.3 2741.7,1397.7 2728,1406.5 2724.4,1423.4 2729.3,1443.3 2747.5,1461.5 2761.2,1478.9 2761.2,1507 2742.1,1526.1 
	2729,1545.8 2727.2,1560.7 2716.9,1569.1 2703.3,1568.5 2694.9,1575.7 2663.9,1579.8 2647.8,1565.5 2613.1,1565.5 2612.5,1588.8 
	2597,1588.8 2593.4,1602.5 2557.4,1600.6 2541.4,1595.3 "/>
<polygon id="_x32_9_x5F_white-nile" class="st51" points="2805.1,1450.8 2779.4,1450.8 2779.4,1461.5 2747.5,1461.5 2729.3,1443.3 
	2724.4,1423.4 2728,1406.5 2741.7,1397.7 2743.5,1385.3 2733.3,1371.5 2728.9,1357.7 2716.9,1350.3 2716.9,1329.9 2722,1321.5 
	2731.5,1321.5 2739,1306 2755.8,1292.8 2773.2,1293.2 2779.3,1286 2788.5,1293.9 2801.1,1293.5 2808.6,1285.3 2819.6,1279.5 
	2824.3,1267.6 2845.8,1267.6 2853,1272.7 2843.6,1293.1 2857.8,1314.8 2840.5,1343.2 2839.2,1353.4 2820.1,1350.3 2814.8,1376.9 
	2820.1,1387.1 2816.6,1396.8 2795.8,1423.8 2805.5,1437.1 "/>
<polygon id="_x32_8_x5F_blue-nile" class="st52" points="2844.9,1519.8 2832.1,1519.8 2817.7,1489.6 2799.3,1475.3 2805.1,1450.8 
	2805.5,1437.1 2795.8,1423.8 2816.6,1396.8 2820.1,1387.1 2814.8,1376.9 2820.1,1350.3 2839.2,1353.4 2840.5,1343.2 2857.8,1314.8 
	2843.6,1293.1 2853,1272.7 2874.9,1276.1 2930.8,1313 2956.4,1311.6 2958.8,1306.5 2966.3,1303.1 2971.3,1327.1 2973.5,1351.1 
	2956.5,1397.6 2953.9,1424.1 2941.1,1424.6 2924.2,1433.8 2909.4,1464.5 2899.6,1474.8 2901.7,1484 2891.4,1500.4 2890.4,1522.4 
	2883.8,1522.4 2865.9,1530.1 "/>
<polygon id="_x32_7_x5F_khartoum" class="st53" points="2722,1227.4 2735.6,1221.9 2759.2,1190.2 2748.6,1161.4 2757.4,1139.6 
	2829.7,1086.5 2849.9,1134.7 2872.5,1141.7 2889.2,1157 2905.6,1176.8 2920.2,1190.1 2948.9,1201.4 2997.4,1201.4 2997.4,1216.1 
	2990.9,1225.3 2991.2,1237.9 2975.2,1291.5 2966.3,1303.1 2958.8,1306.5 2956.4,1311.6 2930.8,1313 2874.9,1276.1 2853,1272.7 
	2845.8,1267.6 2824.3,1267.6 2819.6,1279.5 2808.6,1285.3 2801.1,1293.5 2788.5,1293.9 2779.3,1286 2773.2,1293.2 2755.8,1292.8 "/>
<polygon id="_x32_6_x5F_suakin" class="st54" points="2997.4,1201.4 2948.9,1201.4 2920.2,1190.1 2905.6,1176.8 2889.2,1157 
	2872.5,1141.7 2849.9,1134.7 2829.7,1086.5 2827.9,1028.2 2823.8,1015.7 2816.8,1013.5 2803.5,1003.9 2809.1,985.1 2804.6,976.9 
	2820.2,961.9 2838.7,961.9 2849.6,945.2 2878.4,936.1 2891.6,906.2 2904.7,907.7 2926,893.1 2933,902.9 2947.1,911 2958.1,911.6 
	2968.9,929.4 2975.9,929.7 2992.9,944.1 2992,964.7 3007.8,991.5 3002.5,994.1 3007.8,1020 3009,1047.2 3012.6,1053.9 
	3012.6,1062.4 3007.6,1070.9 3015.2,1090.4 3018.3,1105.9 3027,1114.9 3042.6,1121.7 3053.3,1131.6 3057.5,1141.5 3070,1143.7 
	3078.1,1155 3070.8,1157 3062.3,1170.8 3022,1190.3 3017.2,1198.5 "/>
<polygon id="_x32_5_x5F_nubia" class="st55" points="2331.4,1075.8 2331.4,1049.5 2385.2,1049.5 2385.3,947.7 2668.4,947.7 
	2803.6,947.7 2820.2,961.9 2804.6,976.9 2809.1,985.1 2803.5,1003.9 2816.8,1013.5 2823.8,1015.7 2827.9,1028.2 2829.7,1086.5 
	2757.4,1139.6 2748.6,1161.4 2759.2,1190.2 2735.6,1221.9 2722,1227.4 2481.8,1227.4 2331.4,1227.4 "/>
<polygon id="_x32_4_x5F_sinai" class="st56" points="2771.8,483.9 2780.5,485.7 2803.4,475.1 2826.3,482.5 2838.7,478.8 2856.5,471 
	2883.1,538.8 2890.4,564.4 2881.2,574 2876.2,588.7 2875.7,604.2 2864.7,622.4 2866.1,637.2 2861.1,644.1 2857,652.3 2835.9,640.9 
	2823.1,626.2 2806.6,612 2802.9,600.6 2801.6,588.2 2786.5,573.6 2776.4,558 2771.8,544.3 2771.8,527.8 2760.8,516.3 2757.6,502.2 
	2764,491.6 "/>
<polygon id="_x32_3_x5F_aswan" class="st57" points="2820.2,961.9 2803.6,947.7 2668.4,947.7 2721.8,852.2 2721.8,805.1 
	2796.4,805.5 2811.4,796.8 2832.5,796.2 2876.4,764.8 2894.1,793.4 2907.8,824.8 2928.5,849.5 2919.4,851.6 2926,893.1 
	2904.7,907.7 2891.6,906.2 2878.4,936.1 2849.6,945.2 2838.7,961.9 "/>
<polygon id="_x32_2_x5F_luxor" class="st58" points="2796.4,805.5 2721.8,805.1 2721.8,778.9 2700.3,746 2721.8,736.4 2742,732.7 
	2758.9,719 2777.6,710.8 2798.5,710.8 2838.7,688.9 2843.9,700.8 2843.9,715.5 2876.4,764.8 2832.5,796.2 2811.4,796.8 "/>
<polygon id="_x32_1_x5F_asyut" class="st59" points="2838.7,688.9 2798.5,710.8 2777.6,710.8 2758.9,719 2742,732.7 2721.8,736.4 
	2700.3,746 2652.7,700.8 2635.6,663.6 2682.5,662.9 2708.7,659.3 2746.6,632.4 2746.6,622.4 2768.9,617.3 2786.5,609.6 
	2805.4,634.2 2817.2,637.4 2827.3,654.7 2819.1,656.1 2830.5,677.8 2838.7,681.2 "/>
<polygon id="_x32_0_x5F_faiyum" class="st60" points="2682.5,662.9 2635.6,663.6 2627,591.3 2637.9,580.8 2640.3,571.7 
	2649.5,562.2 2672.2,551.6 2683.6,551.6 2686,561 2700.2,565 2700.2,571.7 2715.7,588.4 2734.2,588.4 2742.3,615.8 2746.6,622.4 
	2746.6,632.4 2708.7,659.3 "/>
<polygon id="_x31_9_x5F_cairo" class="st61" points="2746.6,622.4 2742.3,615.8 2734.2,588.4 2715.7,588.4 2700.2,571.7 2700.2,565 
	2686,561 2683.6,551.6 2682.5,535.5 2699.8,531.7 2712.5,524 2723.9,526.3 2730.4,516.3 2755.1,514.5 2757.3,519.2 2767.4,529.7 
	2767.4,544.9 2759.4,560.3 2769.7,568.5 2777,580.4 2774.8,592.8 2785,599 2786.5,609.6 2768.9,617.3 "/>
<polygon id="_x31_8_x5F_delta_2_" class="st62" points="2755.1,514.5 2730.4,516.3 2723.9,526.3 2712.5,524 2699.8,531.7 
	2682.5,535.5 2677.8,529.6 2682.2,520.5 2681.3,505.2 2677.5,501.4 2678.9,484.9 2667.8,477.2 2663.9,460.8 2674.5,460.8 
	2698.4,453.9 2718.1,463.4 2734.2,460.8 2752.8,468.7 2768.5,480.4 2760,488.3 2752.8,501.2 "/>
<polygon id="_x31_7_x5F_alexandria" class="st63" points="2683.6,551.6 2672.2,551.6 2649.5,562.2 2640.3,571.7 2637.9,566 
	2625.1,561.7 2620.3,543.2 2602.7,531.7 2589.4,519.8 2592.2,496.5 2609.6,488.4 2624.3,477.2 2632.2,479 2642.5,469.9 
	2648.7,469.9 2656.3,460.8 2663.9,460.8 2667.8,477.2 2678.9,484.9 2677.5,501.4 2681.3,505.2 2682.2,520.5 2677.8,529.6 
	2682.5,535.5 "/>
<polygon id="_x31_6_x5F_el-alamein" class="st64" points="2385.3,947.7 2385.8,576.9 2373,547 2368.7,527.4 2386.4,495 
	2377.3,481.6 2377.3,469.3 2389.5,457.7 2398.7,462.9 2421.1,453.9 2447.5,460.1 2476.5,463.1 2503.2,468.9 2507,475.5 2531.3,475 
	2538.4,480.3 2554.6,479.8 2575.6,487 2592.2,496.5 2589.4,519.8 2602.7,531.7 2620.3,543.2 2625.1,561.7 2637.9,566 2640.3,571.7 
	2637.9,580.8 2627,591.3 2635.6,663.6 2652.7,700.8 2700.3,746 2721.8,778.9 2721.8,805.1 2721.8,852.2 2668.4,947.7 "/>
<polygon id="_x31_5_x5F_cyrenaica" class="st65" points="2080,951.8 2080,624.7 2064.1,616.8 2068.7,584.2 2083.3,557.7 2080,545.1 
	2080,523.2 2093.6,523.2 2119.3,507.2 2136.4,479.7 2125.4,460.2 2122.9,438.2 2136.4,420.4 2174.9,396 2192.6,396 2222,386.2 
	2258.1,394.1 2283.7,402.7 2289.2,419.8 2301.4,423.5 2322.9,424.7 2340,435.1 2371.1,434.5 2386.4,442.4 2389.5,457.7 
	2377.3,469.3 2377.3,481.6 2386.4,495 2368.7,527.4 2373,547 2385.8,576.9 2385.2,1049.5 2331.4,1049.5 2331.4,1075.8 "/>
<polygon id="_x31_4_x5F_tripolitania" class="st66" points="1715.1,869.4 1696.2,833.1 1686.9,836.6 1649.1,813.4 1635.6,818.8 
	1616.7,802.2 1614.3,777.1 1581.1,728.8 1610.5,713.8 1610.5,696.4 1599.7,672.4 1608.9,663.4 1610.5,640.4 1606.2,633.4 
	1608.2,592.9 1599.3,550.8 1580.3,530.3 1588,526.2 1611.6,514.5 1630.1,483.2 1622.4,455.4 1629,447.9 1639.8,446.5 1644.5,437.3 
	1696.3,407.9 1691.2,402.6 1696.3,373.5 1724.4,389.2 1757.6,394.5 1778.8,388.5 1815.3,393.9 1846.4,410.6 1877,414.4 
	1887.6,421.7 1892.9,446.9 1916.1,468.1 1937.3,475.5 1973.8,476.8 2019.6,491.4 2048.1,509.3 2080,523.2 2080,545.1 2083.3,557.7 
	2068.7,584.2 2064.1,616.8 2080,624.7 2080,951.8 1924.1,872.8 1868.7,895.8 1827.9,912.6 1792.1,886.1 "/>
<polygon id="_x31_3_x5F_sus" class="st67" points="525.5,655.8 500.6,627.8 521.7,610.5 536.8,599.7 557.9,590.5 575.7,573.8 
	594,546.2 606.5,530 606.5,513.3 597.8,504.6 591.9,502.5 595.7,494.9 609.7,492.2 620,494.9 637.8,495.5 648,492.2 668.6,494.9 
	691.2,492.2 697.7,505.2 710.7,511.1 708,536 721,544.6 728.5,558.6 656.7,602.9 656.7,655.8 "/>
<polygon id="_x31_2_x5F_tafilalt" class="st68" points="721,544.6 708,536 710.7,511.1 697.7,505.2 691.2,492.2 698.3,482 
	715.5,475.5 733.9,464.7 755.5,464.7 762.5,459.3 780.3,456 803,440.4 803,430.6 813.3,421.5 819.2,411.2 830.6,403.1 830.6,386.9 
	849.5,377.2 857.6,377.2 860.3,388 871.6,390.2 877.5,401 895.4,400.4 911.6,424.2 949.9,433.4 955.1,443.7 934.3,450.5 
	914.7,455.1 910.8,467.9 908.6,476.6 919.6,482.7 910.5,501.6 881.9,504.5 867.9,519.8 828.5,543.6 813.2,562.1 793.1,556.6 
	776.2,562.1 750.2,566 728.5,558.6 "/>
<polygon id="_x31_1_x5F_marrakesh" class="st69" points="595.7,494.9 595.7,477.8 597.9,465.2 606.2,447.2 624.6,429.2 624.6,404.3 
	642.2,393.5 657.7,378.7 660.6,370.5 668.2,369.7 675.6,365.3 685.6,374 691.2,390 713,411.5 725,410.7 738.5,418.2 738.5,430.4 
	746.1,442.5 754.9,448.5 762.5,459.3 755.5,464.7 733.9,464.7 715.5,475.5 698.3,482 691.2,492.2 668.6,494.9 648,492.2 
	637.8,495.5 620,494.9 609.7,492.2 "/>
<polygon id="_x31_0_x5F_rabat" class="st70" points="857.6,377.2 849.5,377.2 830.6,386.9 830.6,403.1 819.2,411.2 813.3,421.5 
	803,430.6 803,440.4 780.3,456 762.5,459.3 754.9,448.5 746.1,442.5 738.5,430.4 738.5,418.2 725,410.7 713,411.5 691.2,390 
	685.6,374 675.6,365.3 684.6,359.8 721.9,348.8 748,333.1 757,323.2 782,280.1 791.7,286.7 816.9,293 831.5,309.2 826,323.2 
	838.6,339.2 838.6,349.6 854.8,365.3 "/>
<polygon id="_x39__x5F_fez" class="st71" points="949.9,433.4 911.6,424.2 895.4,400.4 877.5,401 871.6,390.2 860.3,388 
	857.6,377.2 854.8,365.3 838.6,349.6 838.6,339.2 826,323.2 831.5,309.2 842.4,301.3 869.5,297.7 880.6,297.7 898.9,293.8 
	920,301.3 930.8,293.8 932.8,269.9 939.1,269.9 949.9,262.3 954.2,274.2 975,272.6 990.9,275.4 1007.6,288.6 1007.6,296.9 
	1014.4,302.1 1007.6,308.5 1016.8,323.6 1014,347.8 1020.4,356.7 1015.2,371.4 1025.9,381.8 1025.9,392.9 1045.4,406 1035.1,418.8 
	1041.1,426.7 1037.9,433.4 1023.5,426.7 958.2,426.4 "/>
<polygon id="_x38__x5F_tangiers" class="st72" points="932.8,269.9 930.8,293.8 920,301.3 898.9,293.8 880.6,297.7 869.5,297.7 
	842.4,301.3 831.5,309.2 816.9,293 791.7,286.7 782,280.1 797,239.2 819,234 827.7,234 827.7,248 848.8,264.3 861.9,271.6 
	884.2,271.6 899.7,266.7 905.7,269.5 913.7,265.1 "/>
<polygon id="_x37__x5F_saoura" class="st73" points="1171,771.3 1171,1014.2 1159.4,1014.2 1161.7,996.5 1133,978.3 841.3,793.1 
	656.8,676 656.7,655.8 656.7,602.9 728.5,558.6 750.2,566 776.2,562.1 793.1,556.6 813.2,562.1 828.5,543.6 867.9,519.8 
	881.9,504.5 910.5,501.6 919.6,482.7 908.6,476.6 914.7,455.1 934.3,450.5 955.1,443.7 949.9,433.4 958.2,426.4 1023.5,426.7 
	1037.9,433.4 1041.1,426.7 1046.9,422.1 1054.2,428.9 1099.4,417.4 1098.6,397.5 1205.4,370.5 1210.2,376.1 1224.3,433.4 
	1215.4,443 1215.4,451.9 1205.7,465 1209.6,481.6 1209.6,503.7 1195.3,537.7 1201.9,573.2 1201.9,600.6 1186.8,604.8 1157.4,617.6 
	1148.2,641.2 1128.5,645.8 1121.9,659.7 1105.7,675.9 1111.9,689 1111.9,718 1136.4,733.1 1154.4,749.7 1154.4,763.4 "/>
<polygon id="_x36__x5F_touggourt" class="st74" points="1171,1014.2 1171,771.3 1154.4,763.4 1154.4,749.7 1136.4,733.1 1111.9,718 
	1111.9,689 1105.7,675.9 1121.9,659.7 1128.5,645.8 1148.2,641.2 1157.4,617.6 1186.8,604.8 1201.9,600.6 1201.9,573.2 
	1195.3,537.7 1209.6,503.7 1209.6,481.6 1205.7,465 1215.4,451.9 1215.4,443 1224.3,433.4 1210.2,376.1 1217.8,369.3 1215.7,349.2 
	1228.5,343.9 1232.2,329.3 1244.9,328.5 1255.8,324.3 1277.2,349.9 1301.8,333.4 1320.4,327.1 1365,319.4 1373.8,312.7 
	1394.2,313.6 1410,317.3 1427.1,314.4 1449.2,324.5 1476.1,334.1 1485.4,334.1 1486.3,349.2 1493.1,356.1 1502.6,373.5 
	1514.3,376.6 1524.9,388.7 1526.9,409.9 1560.8,428.7 1588,526.2 1580.3,530.3 1599.3,550.8 1608.2,592.9 1606.2,633.4 
	1610.5,640.4 1608.9,663.4 1599.7,672.4 1610.5,696.4 1610.5,713.8 1581.1,728.8 1614.3,777.1 1616.7,802.2 1635.6,818.8 
	1649.1,813.4 1686.9,836.6 1696.2,833.1 1715.1,869.4 1478.5,1011.4 1398.6,1079.9 1271.9,1103.6 1257.4,1092.8 1268.3,1078.4 
	1267.8,1060.8 1253.3,1049.5 1226,1049.5 1216.2,1034.1 1197.7,1037.7 1185.8,1021.7 "/>
<polygon id="_x35__x5F_oran" class="st75" points="1041.1,426.7 1035.1,418.8 1045.4,406 1025.9,392.9 1025.9,381.8 1015.2,371.4 
	1020.4,356.7 1014,347.8 1016.8,323.6 1007.6,308.5 1014.4,302.1 1007.6,296.9 1007.6,288.6 990.9,275.4 1006.1,275.4 1024.4,264.5 
	1035.7,262.3 1039.1,249.3 1058.7,241 1069.6,242.8 1082.4,234 1096.3,238.9 1110.1,232.9 1121.1,217.2 1134.9,211.7 1136.8,221.6 
	1149.6,220.9 1149.6,227.1 1168.7,236.3 1166.8,247.2 1178.6,249.3 1182.8,273.6 1209.4,270.5 1219.3,288.8 1222,307.9 
	1232.2,329.3 1228.5,343.9 1215.7,349.2 1217.8,369.3 1210.2,376.1 1205.4,370.5 1098.6,397.5 1099.4,417.4 1054.2,428.9 
	1046.9,422.1 "/>
<polygon id="_x34__x5F_algiers" class="st76" points="1232.2,329.3 1222,307.9 1219.3,288.8 1209.4,270.5 1182.8,273.6 
	1178.6,249.3 1166.8,247.2 1168.7,236.3 1149.6,227.1 1149.6,220.9 1136.8,221.6 1134.9,211.7 1164.2,201.8 1210.5,199 
	1222.4,196.2 1236.1,200 1254,188.8 1273.7,188.8 1302.5,182.9 1335.8,182.9 1335.8,200 1317.2,226 1322.5,232.7 1334.4,233 
	1334.4,240.8 1352.3,240.1 1358.6,248.1 1346.7,275.5 1358.6,283.2 1345.6,295.5 1326.3,297.6 1312.3,314.8 1320.4,327.1 
	1301.8,333.4 1277.2,349.9 1255.8,324.3 1244.9,328.5 "/>
<polygon id="_x33__x5F_constantine" class="st77" points="1320.4,327.1 1312.3,314.8 1326.3,297.6 1345.6,295.5 1358.6,283.2 
	1346.7,275.5 1358.6,248.1 1352.3,240.1 1334.4,240.8 1334.4,233 1322.5,232.7 1317.2,226 1335.8,200 1335.8,182.9 1352.5,185.2 
	1370.1,197.9 1377.7,197.6 1398.6,186.5 1417.5,184.2 1428.9,173.3 1437.2,173.3 1447.1,181.6 1467.5,182.9 1473.8,173.3 
	1498.3,178.2 1502,186.5 1514.2,186.5 1539,182.9 1532,196.9 1524.3,203.4 1528.9,215.3 1521.4,236.2 1528.4,252.8 1525.6,263.4 
	1534.4,271.7 1523,296.1 1503.5,312.1 1485.4,334.1 1476.1,334.1 1449.2,324.5 1427.1,314.4 1410,317.3 1394.2,313.6 1373.8,312.7 
	1365,319.4 "/>
<polygon id="_x32__x5F_gabes" class="st78" points="1614.2,322.4 1616.7,336.4 1631.2,347.5 1649.3,348.6 1649.3,358.1 
	1655.5,360.3 1662.6,353 1654.8,343.3 1662.6,338.2 1667.8,343.9 1669.4,354.5 1676.4,366.9 1696.3,373.5 1691.2,402.6 
	1696.3,407.9 1662.1,426.9 1644.5,437.3 1639.8,446.5 1629,447.9 1622.4,455.4 1630.1,483.2 1611.6,514.5 1588,526.2 1560.8,428.7 
	1526.9,409.9 1524.9,388.7 1514.3,376.6 1502.6,373.5 1493.1,356.1 1486.3,349.2 1485.4,334.1 1503.5,312.1 1523,296.1 1534.2,298 
	1551.6,294.9 1570.9,302.7 1583.7,313.1 1601.5,322.4 "/>
<polygon id="_x31__x5F_tunis" class="st79" points="1583.7,313.1 1570.9,302.7 1551.6,294.9 1534.2,298 1523,296.1 1534.4,271.7 
	1525.6,263.4 1528.4,252.8 1521.4,236.2 1528.9,215.3 1524.3,203.4 1532,196.9 1539,182.9 1548.1,178.5 1557.8,178.5 1574.4,167.3 
	1604.9,161.1 1604.9,168.8 1611.9,168.8 1618.9,164.9 1625.4,170.7 1625.4,180 1630.9,186.2 1630.9,191.6 1636.7,192 1643.2,185.1 
	1650.6,185.1 1664.5,173.3 1671.9,188.5 1659.9,197.4 1657.9,207.1 1642.9,208.3 1638.2,223.7 1647.1,241.5 1656,241.5 
	1665.7,249.7 1671.9,271.7 1661.4,276.7 1657.9,289.1 1640.9,303 1614.2,322.4 1601.5,322.4 "/>
<polygon id="mombasa" class="st0" points="3112.2,2315.1 3024.6,2254.1 3032.3,2245 3034.8,2232.6 3040.3,2232.6 3046.5,2218 
	3063.3,2208.1 3071,2200.8 3086.7,2198.3 3097.3,2176 3098.7,2135.5 3068.4,2077 3106.4,2075.2 3124.6,2083.6 3132.3,2091.6 
	3144.7,2119 3152.4,2121.2 3175.4,2113.9 3202.3,2116.1 3233.2,2158.9 3225.4,2171.6 3204.6,2184.4 3195.1,2195.2 3181.6,2204.8 
	3170.7,2207 3161.2,2219.1 3163.7,2226.7 3158.2,2244.6 3149.1,2250.1 3142.9,2272.8 3136.3,2281.2 3131.6,2293.2 3121,2312.9 "/>
<polygon id="nairobi" class="st0" points="2944.3,2182.6 2951.2,2171.2 2951.2,2151.5 2967.3,2131.4 2971.3,2131.4 2976,2124.1 
	2971.3,2113.9 2971.3,2104 2958.5,2091.3 2960.1,2065.3 2954.5,2052.9 2960.1,2044.2 2960.1,2039.8 2969.1,2033.6 2984.1,2029.9 
	2991,2038 3012.5,2036.5 3015.8,2043.4 3024.6,2043.4 3050.2,2033.9 3050.2,2051.8 3060,2063.9 3068.4,2077 3098.7,2135.5 
	3097.3,2176 3086.7,2198.3 3071,2200.8 3063.3,2208.1 3046.5,2218 3040.3,2232.6 3034.8,2232.6 "/>
<polygon id="east-victoria" class="st0" points="2849.7,2131.3 2852.2,2123 2845.3,2115.4 2848.8,2103.3 2857.7,2099.7 
	2866.8,2099.7 2866.8,2087.6 2861.4,2085.4 2857.7,2089.8 2847.1,2078.5 2845.3,2063.9 2845.3,2058.8 2858.4,2042.7 2866.8,2029.9 
	2866.8,2020.4 2875.2,2020.4 2885.8,2031.7 2904.1,2025.5 2923.1,2032.5 2929.7,2043.4 2944.3,2040.9 2960.1,2039.8 2960.1,2044.2 
	2954.5,2052.9 2960.1,2065.3 2958.5,2091.3 2971.3,2104 2971.3,2113.9 2976,2124.1 2971.3,2131.4 2967.3,2131.4 2951.2,2151.5 
	2951.2,2171.2 2944.3,2182.6 "/>
<polygon id="ajuran" class="st0" points="3044.8,2006.1 3035.3,2001.2 3024.7,2003.6 3008.3,1975.1 2997,1971.9 2984.6,1947.9 
	2985.8,1937.3 2979.3,1926.5 2973.5,1928.8 2966.4,1913.4 2956.9,1900.2 2959.9,1886.2 2958.8,1847.2 2985.8,1847.2 2991.8,1847.2 
	3061.1,1891.8 3075.3,1888.7 3111.8,1897 3128.4,1898.9 3142.7,1884.3 3147,1873.6 3190.6,1856.6 3210,1871.7 3226.1,1869.9 
	3246.6,1874.9 3222,1910.9 3202.3,1929.9 3202.3,2116.1 3175.4,2113.9 3152.4,2121.2 3144.7,2119 3132.3,2091.6 3124.6,2083.6 
	3106.4,2075.2 3068.4,2077 3060,2063.9 3050.2,2051.8 3050.2,2033.9 3044.5,2016.6 "/>
<polygon id="turkana" class="st0" points="2878.3,2004.8 2894.7,1992.2 2892.5,1969.5 2886.5,1956.3 2886.5,1935.8 2880.2,1927.8 
	2872.2,1921.5 2865.1,1907 2868.4,1890.8 2862.9,1883.2 2851.1,1877.4 2846.2,1868.4 2845.2,1858.8 2862.6,1841.3 2940.9,1841.3 
	2940.9,1865.4 2938.3,1889.7 2940.9,1900.7 2949.2,1909.2 2958,1923 2965.6,1936 2970.6,1948.9 2979.3,1953.6 2984.6,1947.9 
	2997,1971.9 3008.3,1975.1 3024.7,2003.6 3035.3,2001.2 3044.8,2006.1 3044.5,2016.6 3050.2,2033.9 3024.6,2043.4 3015.8,2043.4 
	3012.5,2036.5 2991,2038 2984.1,2029.9 2969.1,2033.6 2960.1,2039.8 2944.3,2040.9 2929.7,2043.4 2923.1,2032.5 2904.1,2025.5 
	2885.8,2031.7 2875.2,2020.4 2866.8,2020.4 2867.3,2014.1 "/>
<polygon id="mbale" class="st0" points="2803.7,2058.1 2792.1,2038.2 2792.1,2023.6 2787.1,2013.8 2787.1,2001.5 2781.8,1998.1 
	2798.8,1977.1 2819.6,1958 2823.8,1950.9 2817.1,1942.4 2823.8,1931.8 2836.4,1924.5 2855.6,1924.5 2872.2,1921.5 2880.2,1927.8 
	2886.5,1935.8 2886.5,1956.3 2892.5,1969.5 2894.7,1992.2 2878.3,2004.8 2867.3,2014.1 2866.8,2020.4 2866.8,2029.9 2858.4,2042.7 
	2845.3,2058.8 2845.3,2063.9 2834.4,2065.5 2826.1,2061.9 2815.6,2061 "/>
<polygon id="buganda" class="st0" points="2731.1,2128.1 2674.6,2128.1 2660.6,2134.4 2653.4,2132.9 2650.9,2140 2635.3,2155.8 
	2628.2,2152.5 2624.1,2141.9 2615.5,2141.9 2612.9,2132.9 2620.8,2111.5 2620.6,2100 2632.3,2091.1 2630.3,2081.2 2622.4,2078.9 
	2622.4,2072.3 2634.3,2062.9 2636.6,2055.7 2636.4,2031.8 2642.7,2031.8 2650.9,2023.4 2655,2015.7 2663.1,2015.7 2668.5,2021.1 
	2685.3,2001.2 2697.7,1996.1 2710.2,1982.4 2726.8,1990.8 2742.6,1988.7 2762.7,1991.5 2781.8,1998.1 2787.1,2001.5 2787.1,2013.8 
	2792.1,2023.6 2792.1,2038.2 2803.7,2058.1 2792,2069.1 2784.9,2066.7 2777.2,2065.5 2762.7,2074.1 2746.9,2078.4 2741.8,2085 
	2741.6,2092.7 2728.8,2113 2727.8,2122.7 "/>
<polygon id="albert-nile" class="st0" points="2707.4,1960.5 2702.4,1964.3 2686.6,1951 2680.7,1953.2 2674.2,1947.5 2674.2,1936.3 
	2682.1,1917.1 2679.5,1909.4 2688.7,1897.5 2683.9,1894 2697.5,1880.6 2721.9,1888.7 2739.2,1889.5 2750.7,1895.2 2759.2,1883.6 
	2775.8,1883.6 2791.2,1877.2 2800.3,1883.6 2819.9,1883.6 2845.2,1858.8 2846.2,1868.4 2851.1,1877.4 2862.9,1883.2 2868.4,1890.8 
	2865.1,1907 2872.2,1921.5 2855.6,1924.5 2836.4,1924.5 2823.8,1931.8 2817.1,1942.4 2823.8,1950.9 2819.6,1958 2798.8,1977.1 
	2781.8,1998.1 2762.7,1991.5 2742.6,1988.7 2726.8,1990.8 2710.2,1982.4 2709.3,1964.2 "/>
<polygon id="kagera" class="st0" points="2743.9,2235.3 2730.2,2245.6 2718.5,2245.6 2710.1,2255.1 2700.9,2255.1 2697.8,2247.8 
	2690.9,2240.3 2677.2,2233.9 2677.2,2222.4 2666.6,2221 2665.2,2213.5 2658.5,2204.9 2666.9,2194.3 2682.5,2190.9 2682.5,2183.9 
	2675.5,2172.8 2678.9,2160.8 2673,2146.6 2662.1,2139 2660.6,2134.4 2674.6,2128.1 2731.1,2128.1 2733.3,2134.3 2729.4,2149.4 
	2729.1,2164.4 2724.6,2178.9 2724.3,2190.4 2730.2,2194 2730.2,2204 2736.6,2211.3 2737.4,2220.8 2743.9,2227.7 "/>
<polygon id="ruanda" class="st0" points="2665.2,2241.1 2650.7,2274 2637,2289.4 2620,2299.1 2608.3,2278.2 2605.5,2250.3 
	2597.7,2247.3 2597.7,2235.5 2586.6,2217.1 2581,2210.7 2581,2202.1 2586.8,2196.2 2594.6,2194.8 2605,2182 2604.1,2166.4 
	2598.3,2162.2 2612.9,2148.2 2615.5,2141.9 2624.1,2141.9 2628.2,2152.5 2635.3,2155.8 2650.9,2140 2653.4,2132.9 2660.6,2134.4 
	2662.1,2139 2673,2146.6 2678.9,2160.8 2675.5,2172.8 2682.5,2183.9 2682.5,2190.9 2666.9,2194.3 2658.5,2204.9 2665.2,2213.5 
	2666.6,2221 2677.2,2222.4 2677.2,2233.9 "/>
<polygon id="south-victoria" class="st0" points="2910.7,2191.6 2904.3,2197.7 2904.3,2209.3 2898.3,2218.3 2888.3,2224 
	2888.3,2268.4 2858.9,2286.7 2851.2,2284.4 2821.9,2275.7 2800.8,2280.7 2789.2,2278.1 2774.2,2282.4 2769.5,2274.4 2761.5,2274.1 
	2761.5,2262.4 2756.8,2245.7 2743.9,2235.3 2743.9,2227.7 2737.4,2220.8 2736.6,2211.3 2743.9,2204 2746.1,2197.3 2757.5,2195.3 
	2766.5,2203.3 2778.8,2202.3 2786.2,2205.7 2791.8,2199 2800.8,2198.3 2808.2,2204.3 2820.2,2201.3 2834.2,2191.6 2832.2,2182.6 
	2810.5,2185.7 2807.9,2179.3 2813.2,2168.3 2821.9,2168.3 2823.6,2159.3 2836.9,2140.3 2849.7,2131.3 2908.6,2163.2 2908.6,2186.7 
	"/>
<polygon id="dodoma" class="st0" points="3022.2,2280.7 3022.2,2336.1 3010.2,2361.8 2990.8,2382.1 2989.1,2398.1 2982.2,2412.9 
	2982.2,2431.2 2975.4,2437.2 2975.4,2447.2 2970.2,2451.5 2963.7,2449.8 2951.4,2441.8 2931.1,2436.6 2924,2431.2 2904.6,2433.8 
	2895.2,2428.9 2887.7,2432.3 2865.2,2453.2 2849.8,2454.9 2841.2,2461.8 2833.2,2461.8 2835.5,2448.9 2830.9,2438.6 2819.8,2429.8 
	2819.8,2419.5 2831.8,2402.1 2838,2397.8 2842.3,2384.4 2849.2,2374.7 2844.3,2363.5 2853.8,2356.1 2855.2,2347.3 2844.9,2341.8 
	2838.6,2334.1 2838.9,2312.1 2844.6,2304.7 2851.2,2284.4 2858.9,2286.7 2888.3,2268.4 2888.3,2224 2898.3,2218.3 2904.3,2209.3 
	2904.3,2197.7 2910.7,2191.6 2908.6,2186.7 2908.6,2163.2 3034.8,2232.6 3032.3,2245 3024.6,2254.1 3017.3,2264.5 "/>
<polygon id="swahili-coast" class="st0" points="3107.5,2328.5 3107.5,2341.1 3088.9,2378.7 3092.3,2404.2 3102.9,2408.8 
	3116.6,2427.8 3125.4,2427.8 3128.9,2439.2 3126.5,2445.7 3122,2445.7 3115.9,2461.8 3115.9,2470.8 3122.7,2476.1 3122.3,2492.8 
	3116.2,2502 3108.9,2498.2 3095.3,2504.6 3077.5,2509.9 3072.9,2500.1 3045.9,2490.6 3028.4,2478.4 3004.4,2478.8 2994.9,2468.1 
	2989.6,2468.1 2970.2,2457.8 2970.2,2451.5 2975.4,2447.2 2975.4,2437.2 2982.2,2431.2 2982.2,2412.9 2989.1,2398.1 2990.8,2382.1 
	3010.2,2361.8 3022.2,2336.1 3022.2,2280.7 3017.3,2264.5 3024.6,2254.1 3112.2,2315.1 "/>
<polygon id="kilwa" class="st0" points="3115.4,2509.9 3117.6,2520.9 3122.3,2525.2 3122.3,2535.5 3131.7,2547.4 3134.3,2568.8 
	3141.5,2576.6 3139.4,2586 3156.9,2599.2 3166.4,2599.2 3175.8,2615.9 3157.8,2623.6 3115.4,2648.5 3092.3,2651.5 3077.3,2659.6 
	3064.5,2653.6 3042.2,2655.3 3037.1,2670.3 3024.7,2675.4 3006.2,2673.6 2991.9,2669.2 2978.5,2677.1 2958.2,2677.1 2945.4,2662.8 
	2935.2,2663.1 2926.3,2670.4 2916.8,2668.2 2893.9,2668.2 2891.6,2660.6 2878.3,2647.8 2875.4,2638.6 2878.9,2631.9 2873.5,2615.4 
	2873.5,2597.2 2870,2585.8 2845.8,2562.9 2843.3,2552.7 2835.6,2544.1 2833.2,2461.8 2841.2,2461.8 2849.8,2454.9 2865.2,2453.2 
	2887.7,2432.3 2895.2,2428.9 2904.6,2433.8 2924,2431.2 2931.1,2436.6 2951.4,2441.8 2963.7,2449.8 2970.2,2451.5 2970.2,2457.8 
	2989.6,2468.1 2994.9,2468.1 3004.4,2478.8 3028.4,2478.4 3045.9,2490.6 3072.9,2500.1 3077.5,2509.9 3095.3,2504.6 3108.9,2498.2 
	3116.2,2502 "/>
<polygon id="kigoma" class="st0" points="2805.8,2414.4 2795.5,2409.6 2782.7,2409.6 2772.5,2401.3 2755.2,2398.1 2748.8,2390.7 
	2744.9,2375.7 2735,2370.5 2721.3,2376.3 2693.4,2370.5 2660.4,2376.9 2649.5,2384.3 2653.7,2395.8 2651.1,2410.9 2637.7,2406.7 
	2625.2,2394.2 2625.2,2385.3 2633.5,2376.6 2633.2,2368.6 2625.2,2356.1 2631.9,2344.9 2630.6,2336.9 2620.7,2327.3 2622.6,2303.9 
	2620,2299.1 2637,2289.4 2650.7,2274 2665.2,2241.1 2677.2,2233.9 2690.9,2240.3 2697.8,2247.8 2700.9,2255.1 2710.1,2255.1 
	2718.5,2245.6 2730.2,2245.6 2743.9,2235.3 2756.8,2245.7 2761.5,2262.4 2761.5,2274.1 2769.5,2274.4 2774.2,2282.4 2789.2,2278.1 
	2800.8,2280.7 2821.9,2275.7 2851.2,2284.4 2844.6,2304.7 2838.9,2312.1 2838.6,2334.1 2844.9,2341.8 2855.2,2347.3 2853.8,2356.1 
	2844.3,2363.5 2849.2,2374.7 2842.3,2384.4 2838,2397.8 2831.8,2402.1 2819.8,2419.5 "/>
<polygon id="rukwa" class="st0" points="2833.2,2568.5 2818,2568.5 2810.8,2564.1 2800.5,2562.2 2789.5,2555.3 2783.1,2557.2 
	2770.4,2548.9 2766.5,2542.8 2739.7,2541.4 2739.7,2534.5 2725.3,2532.9 2718.4,2527.3 2718.4,2521.8 2700.7,2516.8 2697.4,2506.9 
	2685.8,2491.9 2676.4,2470.1 2669.2,2461.8 2667.2,2433.9 2651.1,2410.9 2653.7,2395.8 2649.5,2384.3 2660.4,2376.9 2693.4,2370.5 
	2721.3,2376.3 2735,2370.5 2744.9,2375.7 2748.8,2390.7 2755.2,2398.1 2772.5,2401.3 2782.7,2409.6 2795.5,2409.6 2819.8,2419.5 
	2819.8,2429.8 2830.9,2438.6 2835.5,2448.9 2833.2,2461.8 2835.6,2544.1 2843.3,2552.7 2845.8,2562.9 2840.1,2570.5 "/>
</svg>
